<!---->
<svg>
<symbol id="homeicon" xmlns="http://www.w3.org/2000/svg" width="20" height="20" viewBox="0 0 20 20" fill="none">
  <path d="M18.3333 4.77286V1.6701C18.3333 1.21019 17.9608 0.836926 17.5 0.836926C17.0392 0.836926 16.6667 1.21019 16.6667 1.6701V3.6414L12.3308 0.716116C10.915 -0.238705 9.085 -0.238705 7.66917 0.716116L1.83583 4.65204C0.686667 5.42773 0 6.71832 0 8.10556V15.8341C0 18.1312 1.86917 20 4.16667 20H5.83333C6.29417 20 6.66667 19.6267 6.66667 19.1668V11.6682C6.66667 11.2091 7.04 10.8351 7.5 10.8351H12.5C12.96 10.8351 13.3333 11.2091 13.3333 11.6682V19.1668C13.3333 19.6267 13.7058 20 14.1667 20H15.8333C18.1308 20 20 18.1312 20 15.8341V8.10556C20 6.78831 19.38 5.55771 18.3333 4.77286Z" fill="#808080"/>
</symbol>
<!---->
<symbol id="facebookicon" xmlns="http://www.w3.org/2000/svg"  viewBox="0 0 33 32" fill="none">
  <g clip-path="url(#clip0_83_337)">
    <path d="M32.5 16C32.5 7.16326 25.3367 0 16.5 0C7.66326 0 0.5 7.16326 0.5 16C0.5 23.9858 6.35007 30.6062 13.9993 31.8056V20.6246H9.93644V16H13.9993V12.4753C13.9993 8.46459 16.3886 6.25067 20.0437 6.25067C21.7954 6.25067 23.6253 6.56356 23.6253 6.56356V10.5007H21.6081C19.6218 10.5007 19.0007 11.7333 19.0007 12.9991V16H23.4381L22.7293 20.6246H19.0007V31.8056C26.6499 30.6062 32.5 23.9858 32.5 16Z" fill="#4676ED"/>
    <path d="M22.727 20.6239L23.4357 15.9993H18.9984V12.9984C18.9984 11.7327 19.617 10.5001 21.6058 10.5001H23.623V6.56289C23.623 6.56289 21.793 6.25 20.0413 6.25C16.3862 6.25 13.9969 8.46393 13.9969 12.4746V15.9993H9.93408V20.6239H13.9969V31.805C14.8123 31.933 15.6467 31.9993 16.4976 31.9993C17.3486 31.9993 18.183 31.933 18.9984 31.805V20.6239H22.727Z" fill="white"/>
  </g>
  <defs>
    <clipPath id="clip0_83_337">
      <rect width="32" height="32" fill="white" transform="translate(0.5)"/>
    </clipPath>
  </defs>
</symbol>
<!---->
<symbol id="linkedinicon" xmlns="http://www.w3.org/2000/svg" width="34" height="32" viewBox="0 0 34 32" fill="none">
  <g clip-path="url(#clip0_521_327)">
    <mask id="mask0_521_327" style="mask-type:luminance" maskUnits="userSpaceOnUse" x="0" y="0" width="33" height="32">
      <path d="M32.4629 0H0.462891V32H32.4629V0Z" fill="white"/>
    </mask>
    <g mask="url(#mask0_521_327)">
      <path d="M16.4629 32C25.2994 32 32.4629 24.8366 32.4629 16C32.4629 7.16344 25.2994 0 16.4629 0C7.62633 0 0.462891 7.16344 0.462891 16C0.462891 24.8366 7.62633 32 16.4629 32Z" fill="#4467AD"/>
      <path d="M17.5441 14.0489C17.7646 13.8001 17.9471 13.5488 18.1746 13.3331C18.8739 12.6741 19.6988 12.3423 20.6635 12.3518C21.1945 12.3565 21.7183 12.3944 22.228 12.5414C23.3966 12.8804 24.0769 13.6839 24.3992 14.8264C24.641 15.6821 24.686 16.5615 24.6884 17.4433C24.6908 19.3041 24.6837 21.1648 24.6884 23.0232C24.6884 23.1962 24.641 23.2436 24.468 23.2412C23.5103 23.2341 22.5503 23.2341 21.5927 23.2412C21.4244 23.2412 21.3889 23.1915 21.3889 23.0303C21.3936 21.2596 21.396 19.4913 21.3889 17.7207C21.3889 17.2774 21.358 16.8341 21.2348 16.4027C21.0049 15.6086 20.436 15.2033 19.604 15.2484C18.4686 15.3076 17.876 15.8718 17.7314 17.0261C17.6958 17.3011 17.6792 17.5784 17.6816 17.8558C17.6816 19.5767 17.6816 21.2975 17.6863 23.0208C17.6863 23.1915 17.6437 23.2436 17.4683 23.2412C16.5035 23.2318 15.5388 23.2341 14.5717 23.2412C14.4176 23.2412 14.3726 23.2009 14.3726 23.0445C14.3773 19.6359 14.3773 16.2273 14.3726 12.8211C14.3726 12.6528 14.4271 12.6125 14.5859 12.6149C15.5032 12.622 16.4182 12.622 17.3355 12.6149C17.5038 12.6149 17.5489 12.667 17.5441 12.8282C17.5346 13.2359 17.5417 13.6436 17.5417 14.0513L17.5441 14.0489Z" fill="#FEFEFE"/>
      <path d="M12.2935 17.9459C12.2935 19.6312 12.2911 21.3189 12.2982 23.0042C12.2982 23.1915 12.2532 23.2484 12.0588 23.246C11.1012 23.2365 10.1436 23.2389 9.18593 23.246C9.03185 23.246 8.98682 23.2081 8.98682 23.0493C8.99156 19.6359 8.99156 16.2226 8.98682 12.8069C8.98682 12.6647 9.02 12.6149 9.17171 12.6173C10.1436 12.6244 11.1154 12.6244 12.0873 12.6173C12.2745 12.6173 12.2982 12.6884 12.2982 12.8472C12.2935 14.5467 12.2959 16.2463 12.2959 17.9482L12.2935 17.9459Z" fill="#FEFEFE"/>
      <path d="M12.5567 9.23251C12.5567 10.2921 11.6986 11.1525 10.6414 11.1549C9.5984 11.1549 8.73326 10.2921 8.72852 9.24911C8.72615 8.19429 9.5913 7.32674 10.6462 7.32911C11.6939 7.32911 12.5543 8.18955 12.5567 9.23251Z" fill="#FEFEFE"/>
    </g>
  </g>
  <defs>
    <clipPath id="clip0_521_327">
      <rect width="33" height="32" fill="white" transform="translate(0.5)"/>
    </clipPath>
  </defs>
</symbol>
<!---->

<symbol id="twittericon" xmlns="http://www.w3.org/2000/svg"  viewBox="0 0 32 32" fill="none">
  <path fill-rule="evenodd" clip-rule="evenodd" d="M32 16C32 24.8366 24.8366 32 16 32C7.16345 32 0 24.8366 0 16C0 7.16344 7.16345 0 16 0C24.8366 0 32 7.16344 32 16ZM13.7918 16.9557L6.14398 6.73002H12.0383L17.0528 13.4338L23.2579 6.73002H24.9901L17.8266 14.4689L25.9042 25.2697H20.0099L14.566 17.9898L7.82798 25.2697H6.09578L13.7918 16.9557ZM11.3991 8.00582H8.69125L20.6488 23.9949H23.3566L11.3991 8.00582Z" fill="black"/>
</symbol>
<!---->
<symbol id="emailicon" xmlns="http://www.w3.org/2000/svg"  viewBox="0 0 34 32" fill="none">
  <g clip-path="url(#clip0_83_359)">
    <path d="M17.4243 32C26.2609 32 33.4243 24.8366 33.4243 16C33.4243 7.16344 26.2609 0 17.4243 0C8.58776 0 1.42432 7.16344 1.42432 16C1.42432 24.8366 8.58776 32 17.4243 32Z" fill="#FF8484"/>
    <path d="M24.2323 14.1281C23.5628 14.652 22.7188 15.2923 19.75 17.4462C19.1678 17.8828 18.0909 18.8433 17.0722 18.8433C16.0244 18.8433 14.9766 17.8828 14.3654 17.4462C11.3966 15.2923 10.5525 14.652 9.88305 14.1281C9.76662 14.0408 9.62109 14.1281 9.62109 14.2736V20.2112C9.62109 20.9971 10.2323 21.6083 11.0182 21.6083H23.1263C23.883 21.6083 24.5233 20.9971 24.5233 20.2112V14.2736C24.5233 14.1281 24.3487 14.0408 24.2323 14.1281ZM17.0722 17.8828C17.7417 17.9119 18.7022 17.0387 19.197 16.6894C23.068 13.8952 23.3591 13.6333 24.2323 12.9348C24.4069 12.8183 24.5233 12.6146 24.5233 12.3817V11.8287C24.5233 11.072 23.883 10.4316 23.1263 10.4316H11.0182C10.2323 10.4316 9.62109 11.072 9.62109 11.8287V12.3817C9.62109 12.6146 9.70841 12.8183 9.88305 12.9348C10.7562 13.6333 11.0473 13.8952 14.9184 16.6894C15.4132 17.0387 16.3737 17.9119 17.0722 17.8828Z" fill="white"/>
  </g>
  <defs>
    <clipPath id="clip0_83_359">
      <rect width="33" height="32" fill="white" transform="translate(0.5)"/>
    </clipPath>
  </defs>
</symbol>
<!---->

<symbol id="malefemaleicon" width="150" height="150" viewBox="0 0 150 150" fill="none" xmlns="http://www.w3.org/2000/svg">
<path d="M79.9342 149.013C60.3047 149.013 41.4792 141.215 27.599 127.335C13.7188 113.455 5.92105 94.6295 5.92105 75C5.92105 55.3705 13.7188 36.5449 27.599 22.6648C41.4792 8.78461 60.3047 0.986816 79.9342 0.986816" stroke="black" stroke-linecap="round"/>
<path d="M16.7763 74.9999C16.7763 62.5085 20.4805 50.2975 27.4203 39.9113C34.3602 29.525 44.2241 21.4299 55.7647 16.6496C67.3053 11.8694 80.0043 10.6186 92.2557 13.0556C104.507 15.4926 115.761 21.5078 124.594 30.3406C133.426 39.1734 139.442 50.427 141.879 62.6785C144.316 74.9299 143.065 87.6288 138.284 99.1694C133.504 110.71 125.409 120.574 115.023 127.514C104.637 134.454 92.4256 138.158 79.9342 138.158L79.9342 74.9999L16.7763 74.9999Z" fill="#2F80ED"/>
<path d="M79.9342 138.158C71.6402 138.158 63.4274 136.524 55.7647 133.35C48.1021 130.176 41.1396 125.524 35.2748 119.659C29.4101 113.795 24.7579 106.832 21.5839 99.1694C18.4099 91.5067 16.7763 83.2939 16.7763 74.9999L79.9342 74.9999L79.9342 138.158Z" fill="#B6D5FF"/>
<path d="M79.9342 113.487C101.735 113.487 119.408 95.8139 119.408 74.0132C119.408 52.2125 101.735 34.5396 79.9342 34.5396C58.1335 34.5396 40.4605 52.2125 40.4605 74.0132C40.4605 95.8139 58.1335 113.487 79.9342 113.487Z" fill="white"/>
<path d="M99.3297 75.383C99.1294 76.0246 98.8562 76.6265 98.2379 76.9631C97.8836 77.1537 97.4829 77.2582 97.079 77.4124C97.1228 77.5027 97.1766 77.6246 97.2396 77.744C97.7887 78.762 98.3383 79.7792 98.8885 80.7955C99.7345 82.3656 98.862 83.8628 97.0756 83.8885C96.2363 83.9018 95.3961 83.8885 94.5567 83.8885H94.055V84.3619C94.055 86.2503 94.041 88.1388 94.06 90.0264C94.0716 91.1571 93.6461 92.0118 92.6081 92.496C91.6661 92.9353 90.7042 92.7165 89.8698 91.9654C89.4766 92.3608 89.1752 92.5391 88.335 92.6493C86.7862 92.9453 85.4907 91.8013 85.4775 90.1839C85.4626 88.2681 85.4775 86.3523 85.4775 84.4365V83.8885H85.0098C84.115 83.8885 83.2201 83.9009 82.3253 83.8885C80.702 83.8603 79.8171 82.3582 80.5762 80.9207C81.1349 79.8612 81.7119 78.8125 82.2798 77.7581C82.3501 77.6271 82.4147 77.4928 82.4991 77.327C82.3228 77.3021 82.1779 77.2897 82.0372 77.2598C80.4487 76.9216 79.7194 75.155 80.6126 73.7606C81.6167 72.1955 82.6754 70.6668 83.663 69.0926C84.5736 67.6377 85.6547 66.3909 87.3748 65.7418C85.8318 64.6508 85.0669 63.2183 85.2225 61.3721C85.3244 60.1527 85.8674 59.1338 86.7953 58.3355C87.2546 57.9435 87.7866 57.6463 88.3609 57.4608C88.9352 57.2754 89.5404 57.2055 90.1418 57.255C90.7432 57.3045 91.3288 57.4726 91.8652 57.7495C92.4015 58.0264 92.8779 58.4067 93.267 58.8685C94.8398 60.7388 94.7943 63.9022 92.2124 65.7045C92.3159 65.7633 92.3995 65.8205 92.4897 65.8611C93.6571 66.3748 94.6504 67.2169 95.3489 68.2851C96.5387 70.0896 97.7191 71.9004 98.8902 73.7175C99.0864 74.0226 99.189 74.3882 99.3355 74.7256L99.3297 75.383ZM89.7414 82.7379H97.0508C97.992 82.7379 98.3182 82.194 97.8712 81.365C96.7487 79.2815 95.6245 77.199 94.4988 75.1177C93.8539 73.9198 93.2008 72.7252 92.5874 71.5107C92.4897 71.3184 92.5187 71.0001 92.6106 70.7962C92.6669 70.6726 92.9822 70.5723 93.1387 70.6154C93.3192 70.666 93.5004 70.8583 93.5989 71.0357C94.4168 72.4997 95.214 73.9754 96.0194 75.4468C96.3969 76.1374 97.0856 76.372 97.6692 76.013C98.2528 75.6541 98.3637 74.9503 97.9432 74.3094C96.7578 72.5014 95.584 70.6859 94.3704 68.8969C92.0973 65.5478 87.3649 65.5726 85.11 68.94C83.9295 70.7016 82.7764 72.4815 81.6167 74.2564C81.1887 74.9113 81.322 75.6267 81.9222 75.9766C82.5223 76.3264 83.134 76.1175 83.5231 75.4054C84.3203 73.9455 85.1124 72.4823 85.9121 71.0241C86.1108 70.6627 86.4336 70.5491 86.7333 70.7091C87.0329 70.8691 87.1083 71.1949 86.9137 71.5704C86.6364 72.1085 86.3558 72.6481 86.0669 73.1762C84.5918 75.897 83.115 78.6172 81.6366 81.3368C81.1813 82.1758 81.5174 82.737 82.4726 82.7379H89.7414ZM89.7414 65.227C90.4197 65.2309 91.0839 65.0329 91.6496 64.6582C92.2153 64.2835 92.6571 63.7488 92.919 63.1222C93.1808 62.4956 93.2508 61.8052 93.1201 61.1386C92.9894 60.4721 92.6639 59.8594 92.1849 59.3785C91.7059 58.8975 91.095 58.5699 90.4298 58.4372C89.7646 58.3046 89.075 58.3728 88.4486 58.6333C87.8222 58.8938 87.2871 59.3348 86.9114 59.9004C86.5357 60.466 86.3363 61.1306 86.3384 61.8098C86.3404 62.7136 86.699 63.58 87.3362 64.2201C87.9733 64.8602 88.8373 65.2221 89.7398 65.227H89.7414ZM90.4037 83.9109C90.3843 83.948 90.3693 83.9872 90.359 84.0278C90.359 86.1467 90.3499 88.2656 90.3532 90.3853C90.3532 90.7841 90.5552 91.0983 90.8747 91.3229C91.2886 91.6156 91.7406 91.6637 92.1992 91.4249C92.4188 91.3217 92.6032 91.1559 92.7292 90.9483C92.8553 90.7407 92.9174 90.5005 92.9077 90.2577C92.9077 88.2211 92.9077 86.1845 92.9077 84.148C92.9011 84.068 92.8881 83.9887 92.8688 83.9109H90.4037ZM86.6025 83.9109C86.6025 86.0016 86.6025 88.0501 86.6025 90.0985C86.6025 90.9109 87.1703 91.5078 87.9104 91.4921C88.6504 91.4763 89.1686 90.9002 89.1694 90.0977C89.1694 88.1722 89.1694 86.2462 89.1694 84.3196C89.1694 84.1878 89.1579 84.0551 89.1512 83.9109H86.6025ZM66.8776 93C66.7532 92.9932 66.63 92.9729 66.51 92.9395L66.4835 92.9312C65.1508 92.5789 64.3934 91.6114 64.3901 90.2287C64.3843 87.9539 64.3901 85.68 64.3901 83.4052V82.9078C63.7709 83.1756 63.174 83.3322 62.5292 83.1689C61.4787 82.9045 60.6882 81.9893 60.6832 80.9083C60.6692 77.6967 60.6576 74.4852 60.6882 71.2737C60.7072 69.357 62.357 67.7156 64.275 67.699C67.51 67.6714 70.745 67.6714 73.98 67.699C75.8375 67.7156 77.4501 69.2584 77.5395 71.1195C77.6115 72.6324 77.5734 74.1503 77.5776 75.6665C77.5776 77.3344 77.5875 79.0024 77.5776 80.6695C77.5668 82.0315 76.7754 83.028 75.4982 83.1863C74.9907 83.2493 74.456 83.0918 73.8889 83.0297V83.372C73.8889 85.5772 73.8889 87.7826 73.8889 89.9883C73.8889 91.6015 73.259 92.4645 71.7367 92.9461C71.6654 92.9752 71.59 92.9928 71.5132 92.9983C71.0236 92.9988 70.541 92.8816 70.1059 92.6568L69.0348 92.1022C68.8503 92.3292 68.6198 92.5143 68.3585 92.6452C67.9041 92.8824 67.3983 93.0037 66.8858 92.9983L66.8776 93ZM72.7358 82.0979H72.7309C72.7309 79.7419 72.7309 77.3853 72.7309 75.0282C72.7309 74.5457 72.7069 74.0607 72.7516 73.5824C72.7667 73.4857 72.8031 73.3935 72.8581 73.3125C72.913 73.2315 72.9852 73.1638 73.0694 73.114C73.2242 73.0436 73.5264 73.0668 73.6331 73.1762C73.789 73.3566 73.8768 73.586 73.8815 73.8245C73.8989 76.1399 73.8964 78.4552 73.8881 80.7706C73.8881 81.1719 74.0114 81.5018 74.302 81.7613C74.6993 82.1111 75.1612 82.2015 75.6463 81.9901C76.1943 81.7513 76.446 81.3037 76.446 80.7085C76.446 77.7036 76.446 74.6991 76.446 71.6948C76.446 69.9191 75.3698 68.8405 73.5918 68.8389C70.604 68.8345 67.6171 68.8345 64.6309 68.8389C62.8719 68.8389 61.8165 69.91 61.8115 71.6782C61.8115 74.1867 61.8115 76.695 61.8115 79.203C61.8115 79.7676 61.7974 80.3338 61.8214 80.8975C61.8373 81.2248 61.9804 81.533 62.2202 81.756C62.46 81.9791 62.7773 82.0994 63.1045 82.0912C63.8578 82.0846 64.3669 81.5176 64.3685 80.6612C64.3735 78.4287 64.3685 76.1962 64.3685 73.9629C64.3685 73.3105 64.5283 73.051 64.9356 73.051C65.3569 73.0452 65.5415 73.3279 65.5407 73.982C65.5357 79.3981 65.531 84.8142 65.5266 90.2303C65.5266 91.182 66.1574 91.8386 67.0299 91.8493C67.813 91.8593 68.5522 91.1621 68.5389 90.2345C68.5 87.5891 68.5249 84.9422 68.5249 82.296C68.5249 81.6568 68.7252 81.3451 69.1283 81.3526C69.5141 81.3601 69.6937 81.6535 69.6937 82.2811V90.3853C69.6937 91.0701 70.072 91.6288 70.692 91.8535C71.7185 92.2282 72.7275 91.478 72.73 90.3273C72.7372 87.5817 72.7391 84.8385 72.7358 82.0979ZM69.125 66.1388C68.2248 66.1367 67.3454 65.8679 66.5974 65.3663C65.8494 64.8647 65.2662 64.1528 64.9213 63.3201C64.5764 62.4873 64.4852 61.571 64.6592 60.6865C64.8331 59.802 65.2644 58.9887 65.8988 58.3492C66.5333 57.7096 67.3424 57.2722 68.2245 57.0921C69.1065 56.912 70.0221 56.9972 70.8559 57.3371C71.6897 57.6769 72.4045 58.2561 72.9103 59.0018C73.4161 59.7476 73.6904 60.6265 73.6985 61.528C73.7049 62.1325 73.5912 62.7323 73.3639 63.2924C73.1367 63.8525 72.8005 64.3618 72.3749 64.7905C71.9493 65.2193 71.4428 65.559 70.8848 65.7899C70.3269 66.0208 69.7287 66.1383 69.125 66.1355V66.1388ZM65.7054 61.5387C65.7089 62.4449 66.0707 63.3128 66.7115 63.9526C67.3524 64.5924 68.2201 64.9519 69.125 64.9526C71.0033 64.9526 72.5529 63.4106 72.5595 61.5404C72.5595 61.0897 72.4709 60.6434 72.2986 60.227C72.1264 59.8106 71.874 59.4323 71.5557 59.1136C71.2375 58.7949 70.8597 58.5421 70.4439 58.3696C70.0281 58.1971 69.5825 58.1084 69.1325 58.1084C68.6824 58.1084 68.2368 58.1971 67.821 58.3696C67.4052 58.5421 67.0274 58.7949 66.7092 59.1136C66.3909 59.4323 66.1385 59.8106 65.9663 60.227C65.7941 60.6434 65.7054 61.0897 65.7054 61.5404V61.5387Z" fill="black"/>
</symbol>
<!---->
<symbol id="triangleicon" xmlns="http://www.w3.org/2000/svg" viewBox="0 0 990 90" fill="none">
<path d="M0.5 0.5H959.732L989.399 45L959.732 89.5H0.5V0.5Z" fill="white" stroke="black"/>
</symbol>
<!---->
<symbol id="ageicon" viewBox="0 0 150 150" fill="none" xmlns="http://www.w3.org/2000/svg">
<path d="M79.9342 149.013C60.3047 149.013 41.4792 141.215 27.599 127.335C13.7188 113.455 5.92105 94.6295 5.92105 75C5.92105 55.3705 13.7188 36.5449 27.599 22.6648C41.4792 8.78461 60.3047 0.986816 79.9342 0.986816" stroke="black" stroke-linecap="round"/>
<path d="M19.8675 94.5168C17.8195 88.2137 16.7763 81.6274 16.7763 74.9999L79.9342 74.9999L19.8675 94.5168Z" fill="#D7E8FF"/>
<path d="M60.4173 135.067C50.9382 131.987 42.3225 126.707 35.2748 119.659C28.2271 112.612 22.9474 103.996 19.8675 94.5168L79.9342 74.9999L60.4173 135.067Z" fill="#B6D5FF"/>
<path d="M16.7763 74.9999C16.7763 61.6623 20.9987 48.667 28.8384 37.8766C36.6781 27.0863 47.7325 19.0548 60.4174 14.9332C73.1022 10.8117 86.7662 10.8117 99.4511 14.9332C112.136 19.0548 123.19 27.0863 131.03 37.8767C138.87 48.667 143.092 61.6623 143.092 75C143.092 88.3376 138.87 101.333 131.03 112.123C123.19 122.914 112.136 130.945 99.451 135.067C86.7662 139.188 73.1022 139.188 60.4173 135.067L79.9342 74.9999L16.7763 74.9999Z" fill="#2F80ED"/>
<path d="M79.9342 113.487C101.735 113.487 119.408 95.8139 119.408 74.0132C119.408 52.2125 101.735 34.5396 79.9342 34.5396C58.1335 34.5396 40.4605 52.2125 40.4605 74.0132C40.4605 95.8139 58.1335 113.487 79.9342 113.487Z" fill="white"/>
<g clip-path="url(#clip0_306_688)">
<path d="M100 87.3097C99.995 87.4998 99.9644 87.6883 99.9092 87.8698C99.5868 88.8396 98.8347 89.4312 97.8401 89.4927C97.7235 89.4999 97.6053 89.4975 97.4887 89.4975C85.9065 89.4975 74.3243 89.4962 62.7422 89.4935C62.4304 89.4992 62.1191 89.4647 61.8156 89.3908C61.3008 89.2529 60.8448 88.9427 60.5188 88.5086C60.1929 88.0746 60.0154 87.5413 60.0141 86.9921C60.0031 85.0993 59.9867 83.2048 60.018 81.312C60.0853 77.2928 63.3643 73.849 67.2623 73.7149C68.7438 73.6632 70.2307 73.6591 71.7121 73.7149C74.3869 73.8119 76.4467 75.084 77.9313 77.3615C78.0635 77.5644 78.166 77.6848 78.3922 77.6363C78.4885 77.6153 78.5831 77.5918 78.6802 77.5773C78.8854 77.5434 79.0929 77.5267 79.3008 77.5272C80.1757 77.5401 81.0397 77.5191 81.9146 77.5401C82.8144 77.5736 83.7104 77.6798 84.5941 77.8577C84.6883 77.8788 84.7857 77.8788 84.8798 77.8577C85.2006 77.7769 85.4276 77.3558 85.725 77.1142C86.9177 76.1145 88.4086 75.572 89.9446 75.5786C91.0507 75.5754 92.157 75.5754 93.2636 75.5786C94.8857 75.5799 96.4531 76.1854 97.6777 77.284C98.9024 78.3827 99.7022 79.9007 99.9304 81.5593C99.9721 81.8809 99.9951 82.2047 99.9992 82.5292L100 87.3097ZM76.9702 78.1705C75.7619 76.2963 74.135 75.16 71.9782 75.0185C70.4357 74.9199 68.8807 74.949 67.3336 75.0007C64.0326 75.1115 61.31 78.0048 61.2662 81.4155C61.242 83.242 61.2568 85.0694 61.2615 86.8967C61.2615 87.6677 61.7561 88.1898 62.505 88.202C63.416 88.2165 64.3277 88.202 65.2386 88.202C65.3274 88.1945 65.4157 88.1818 65.5031 88.164V87.7195C65.5031 86.2825 65.5031 84.8452 65.5031 83.4077C65.4986 83.2603 65.5075 83.1129 65.5297 82.9672C65.5923 82.6294 65.8177 82.4451 66.1346 82.4492C66.4688 82.454 66.6958 82.648 66.7396 83.0149C66.7526 83.1491 66.7573 83.2841 66.7537 83.419C66.7537 84.856 66.7537 86.2932 66.7537 87.7308V88.1729H73.9151V86.2873C73.9151 85.374 73.9041 84.4608 73.9205 83.5475C73.9222 83.1305 73.9605 82.7144 74.0348 82.3045C74.3909 80.4917 75.3863 79.1412 76.9702 78.1705ZM95.2231 88.1923C96.1419 88.1923 97.0121 88.2205 97.8784 88.1817C98.4176 88.1575 98.7455 87.7251 98.7479 87.1351C98.7526 85.5236 98.7737 83.912 98.74 82.3021C98.6853 79.635 96.6568 77.2306 94.0931 76.9582C92.5358 76.7966 90.9479 76.8313 89.3796 76.9033C88.0657 76.9639 86.9395 77.5838 86.0067 78.5819C86.0795 78.6498 86.1343 78.7047 86.1937 78.754C87.4983 79.8532 88.2989 81.2595 88.3709 82.9971C88.4429 84.7202 88.3865 86.449 88.3865 88.1737H93.9718V87.4285C93.9718 86.2332 93.9679 85.0386 93.9773 83.8441C93.9773 83.4667 94.212 83.225 94.5454 83.2024C94.8968 83.179 95.1629 83.4069 95.213 83.7883C95.2254 83.9226 95.2288 84.0577 95.2231 84.1924V88.1923ZM84.3453 88.2036C85.0293 88.2036 85.6639 88.2084 86.3017 88.2036C86.891 88.1971 87.1626 87.9223 87.1704 87.3145C87.1774 86.0255 87.197 84.7356 87.1657 83.4473C87.1031 80.9095 85.383 78.9852 82.9257 78.7767C81.7832 78.6887 80.636 78.6868 79.4933 78.771C77.1862 78.9238 75.4646 80.5555 75.2298 82.9276C75.0795 84.443 75.1742 85.985 75.1789 87.515C75.1789 87.8334 75.3753 88.1284 75.6868 88.1454C76.4428 88.1874 77.2027 88.1591 77.9845 88.1591C77.9845 87.0074 77.9845 85.8808 77.9845 84.7533C77.9845 84.2345 78.2091 83.9532 78.6051 83.9451C79.001 83.9371 79.2311 84.2167 79.2311 84.7339C79.2311 85.741 79.2311 86.748 79.2311 87.755C79.2311 87.8965 79.2436 88.0371 79.2507 88.1793H83.0853V87.7267C83.0853 86.8 83.0853 85.8732 83.0853 84.9465C83.0853 84.8261 83.0814 84.704 83.0916 84.5844C83.1268 84.186 83.3616 83.9451 83.709 83.9443C84.0565 83.9435 84.3179 84.1868 84.3265 84.582C84.3461 85.4403 84.3359 86.3002 84.3375 87.1602C84.3429 87.494 84.3429 87.8261 84.3429 88.2044L84.3453 88.2036Z" fill="black"/>
<path d="M69.6375 60.5C69.8775 60.5002 70.1171 60.524 70.3528 60.5711C70.6055 60.622 70.8591 60.673 71.1072 60.7425C73.9284 61.5353 75.7291 64.4715 75.2227 67.4425C74.7149 70.4272 72.0768 72.5576 69.164 72.3345C66.2395 72.1115 63.9168 69.6044 63.8464 66.5963C63.811 65.1238 64.3081 63.6905 65.2409 62.5761C66.1736 61.4617 67.4749 60.7463 68.8909 60.5695C68.9085 60.5677 68.9261 60.5648 68.9433 60.5606C69.1018 60.5231 69.2636 60.5028 69.4262 60.5H69.6375ZM69.5592 71.0552C72.0134 71.0608 74.0434 68.9862 74.0551 66.4597C74.0677 63.9155 72.0314 61.8053 69.5702 61.8109C67.109 61.8166 65.0977 63.9017 65.0946 66.429C65.0915 68.9562 67.1129 71.0495 69.5608 71.0552H69.5592Z" fill="black"/>
<path d="M91.6405 74.5684C88.8866 74.6144 86.5928 72.3054 86.5357 69.4282C86.4786 66.5857 88.7082 64.1692 91.4307 64.1207C94.2911 64.0706 96.6028 66.3255 96.6506 69.2124C96.6675 69.9052 96.5508 70.5947 96.3072 71.2405C96.0636 71.8863 95.6981 72.4756 95.2318 72.9741C94.7655 73.4726 94.2078 73.8702 93.5913 74.144C92.9747 74.4177 92.3116 74.5619 91.6405 74.5684ZM87.7878 69.2924C87.7806 69.8107 87.8727 70.3253 88.0589 70.8066C88.245 71.288 88.5216 71.7265 88.8725 72.097C89.2235 72.4675 89.642 72.7626 90.1039 72.9654C90.5658 73.1682 91.0619 73.2746 91.5638 73.2785C92.5633 73.2853 93.5254 72.8863 94.2427 72.1674C94.96 71.4486 95.375 70.4674 95.3984 69.4354C95.4336 67.2533 93.7793 65.455 91.7015 65.4162C89.5463 65.3718 87.8246 67.0763 87.7878 69.2924Z" fill="black"/>
<path d="M85.5598 72.2496C85.559 73.4521 85.0963 74.6051 84.2732 75.4556C83.4501 76.3061 82.3339 76.7846 81.1696 76.7861C80.0043 76.788 78.8859 76.3127 78.0595 75.4642C77.2331 74.6158 76.7663 73.4635 76.7613 72.2601C76.7449 69.762 78.7514 67.6841 81.1774 67.6978C82.3418 67.7053 83.4561 68.1881 84.2771 69.0408C85.0981 69.8936 85.5592 71.0471 85.5598 72.2496ZM84.3077 72.2383C84.3063 71.3759 83.9734 70.5494 83.3821 69.9403C82.7909 69.3313 81.9898 68.9895 81.1547 68.9901C80.3198 68.9951 79.5207 69.3409 78.9318 69.9522C78.343 70.5635 78.0123 71.3906 78.0119 72.2529C78.013 72.6799 78.0956 73.1025 78.2549 73.4965C78.4142 73.8906 78.6471 74.2483 78.9404 74.5494C79.2336 74.8504 79.5814 75.0888 79.9639 75.251C80.3464 75.4132 80.7561 75.496 81.1696 75.4946C81.5829 75.4946 81.9922 75.4102 82.3739 75.2464C82.7556 75.0826 83.1022 74.8425 83.3938 74.5399C83.6854 74.2373 83.9163 73.8783 84.0731 73.4833C84.2299 73.0883 84.3097 72.6652 84.3077 72.2383Z" fill="black"/>
</g>
<defs>
<clipPath id="clip0_306_688">
<rect width="40" height="40" fill="white" transform="translate(60 55)"/>
</clipPath>
</defs>
</symbol>
<!---->
<symbol id="occupationicon"  viewBox="0 0 150 150" fill="none" xmlns="http://www.w3.org/2000/svg">
<path d="M70.0658 149.013C89.6953 149.013 108.521 141.215 122.401 127.335C136.281 113.455 144.079 94.6295 144.079 75C144.079 55.3705 136.281 36.5449 122.401 22.6648C108.521 8.78461 89.6953 0.986816 70.0658 0.986816" stroke="black" stroke-linecap="round"/>
<path d="M133.224 74.9999C133.224 63.3522 130.003 51.9313 123.917 42C117.831 32.0687 109.117 24.0138 98.7389 18.7258C88.3607 13.4379 76.7223 11.1229 65.1105 12.0367C53.4986 12.9506 42.3657 17.0578 32.9425 23.9041L70.0658 74.9999L133.224 74.9999Z" fill="#2B66B6"/>
<path d="M32.9425 23.9041C24.8791 29.7626 18.3166 37.4462 13.7917 46.3269C9.26678 55.2075 6.9079 65.033 6.90791 75C6.90791 84.9669 9.2668 94.7924 13.7917 103.673C18.3166 112.554 24.8791 120.237 32.9426 126.096L70.0658 74.9999L32.9425 23.9041Z" fill="#2F80ED"/>
<path d="M32.9425 126.096C43.7329 133.935 56.7282 138.158 70.0658 138.158C83.4034 138.158 96.3987 133.935 107.189 126.096L70.0658 74.9999L32.9425 126.096Z" fill="#5FA3FF"/>
<path d="M107.189 126.096C117.979 118.256 126.011 107.202 130.133 94.5168L70.0658 74.9999L107.189 126.096Z" fill="#B6D5FF"/>
<path d="M130.133 94.5168C132.181 88.2137 133.224 81.6274 133.224 74.9999L70.0658 74.9999L130.133 94.5168Z" fill="#E7F1FF"/>
<path d="M70.0658 113.487C48.2651 113.487 30.5921 95.8139 30.5921 74.0132C30.5921 52.2125 48.2651 34.5396 70.0658 34.5396C91.8665 34.5396 109.539 52.2125 109.539 74.0132C109.539 95.8139 91.8665 113.487 70.0658 113.487Z" fill="white"/>
<g clip-path="url(#clip0_305_668)">
<path d="M72.9299 70.1482C72.3088 70.1482 71.7448 70.1525 71.18 70.1482C69.3329 70.1329 68.1691 68.9555 68.1683 67.1009C68.1683 64.0833 68.1683 61.0658 68.1683 58.0482C68.1683 56.1842 69.3559 55.0017 71.2294 55C76.4582 55 81.6868 55 86.915 55C88.8166 55 89.9932 56.1757 89.9949 58.0746C89.9949 61.078 89.9949 64.0813 89.9949 67.0847C89.9949 68.9845 88.8251 70.1457 86.9125 70.1516C84.3335 70.1516 81.7546 70.1619 79.1757 70.1431C78.9951 70.1372 78.8151 70.167 78.6461 70.2309C78.4771 70.2948 78.3223 70.3915 78.1908 70.5154C76.9981 71.5599 75.7815 72.5805 74.5836 73.6207C74.2428 73.9146 73.8901 74.0688 73.4607 73.8712C73.0313 73.6735 72.9214 73.2944 72.9274 72.8489C72.9376 71.9688 72.9299 71.0913 72.9299 70.1482ZM74.7455 71.0854C75.7142 70.2573 76.6019 69.5127 77.4718 68.746C77.7739 68.4657 78.1743 68.3158 78.5862 68.3285C81.4045 68.3404 84.2236 68.337 87.042 68.3336C87.8087 68.3336 88.1649 67.9826 88.1666 67.2167C88.1717 64.1293 88.1717 61.0419 88.1666 57.9545C88.1666 57.1775 87.8258 56.8317 87.0522 56.8317C81.7399 56.8271 76.4293 56.8271 71.1203 56.8317C70.3587 56.8317 69.9949 57.1869 69.9932 57.9502C69.9858 61.0377 69.9858 64.1251 69.9932 67.2125C69.9932 67.975 70.3672 68.3285 71.1229 68.3336C71.9749 68.3387 72.8268 68.3336 73.672 68.3336C74.4064 68.3336 74.7378 68.6616 74.7497 69.3934C74.7523 69.914 74.7455 70.4353 74.7455 71.0828V71.0854ZM65.2179 65.4132C65.2264 67.1672 64.5377 68.8528 63.3033 70.099C62.069 71.3453 60.3901 72.0502 58.636 72.0587C56.8819 72.0672 55.1963 71.3785 53.9499 70.1442C52.7036 68.9099 51.9987 67.2311 51.9902 65.4771C51.9715 61.8138 54.9261 58.8243 58.5708 58.8099C60.3274 58.806 62.0138 59.4991 63.2599 60.737C64.5061 61.975 65.2102 63.6567 65.2179 65.4132ZM63.404 65.426C63.4017 64.4756 63.1175 63.5473 62.5875 62.7584C62.0576 61.9696 61.3055 61.3556 60.4266 60.9941C59.5476 60.6327 58.5812 60.54 57.6495 60.7277C56.7178 60.9155 55.8628 61.3753 55.1925 62.0491C54.5222 62.7228 54.0667 63.5802 53.8838 64.5127C53.7008 65.4453 53.7984 66.4112 54.1644 67.2883C54.5304 68.1653 55.1483 68.9142 55.9399 69.4401C56.7315 69.966 57.6613 70.2453 58.6117 70.2428C59.2433 70.2434 59.8688 70.119 60.4521 69.8768C61.0354 69.6347 61.565 69.2795 62.0104 68.8318C62.4559 68.384 62.8083 67.8526 63.0475 67.2681C63.2867 66.6836 63.4079 66.0575 63.404 65.426ZM76.4741 58.7749C76.2347 58.7775 76.0013 58.851 75.8037 58.9861C75.606 59.1213 75.4528 59.312 75.3636 59.5342C75.2743 59.7564 75.253 60.0001 75.3022 60.2345C75.3515 60.4688 75.4691 60.6833 75.6403 60.8508C75.8115 61.0182 76.0285 61.1312 76.2638 61.1753C76.4992 61.2194 76.7424 61.1928 76.9626 61.0987C77.1828 61.0046 77.3702 60.8474 77.501 60.6468C77.6318 60.4462 77.7002 60.2113 77.6975 59.9719C77.6982 59.8123 77.6668 59.6542 77.6052 59.5069C77.5436 59.3597 77.453 59.2263 77.339 59.1147C77.2249 59.0031 77.0895 58.9155 76.941 58.8571C76.7924 58.7988 76.6337 58.7708 76.4741 58.7749ZM81.6711 63.9606C81.4317 63.9606 81.1976 64.0317 80.9985 64.1647C80.7993 64.2978 80.6442 64.4869 80.5526 64.7082C80.461 64.9294 80.437 65.1729 80.4838 65.4077C80.5306 65.6426 80.646 65.8583 80.8154 66.0276C80.9848 66.1968 81.2006 66.3121 81.4355 66.3587C81.6704 66.4053 81.9138 66.3812 82.135 66.2894C82.3562 66.1977 82.5452 66.0424 82.6782 65.8432C82.8111 65.644 82.882 65.4099 82.8818 65.1704C82.8841 65.011 82.8544 64.8528 82.7945 64.7051C82.7346 64.5574 82.6458 64.4232 82.5332 64.3105C82.4205 64.1977 82.2865 64.1086 82.1388 64.0486C81.9912 63.9885 81.8331 63.9586 81.6737 63.9606H81.6711ZM77.0637 65.7753L82.2428 60.5964C82.408 60.4309 82.5009 60.2066 82.5009 59.9727C82.5009 59.7389 82.408 59.5146 82.2428 59.3491C82.0772 59.1838 81.8527 59.091 81.6187 59.091C81.3847 59.091 81.1603 59.1838 80.9947 59.3491L75.819 64.5272C75.7369 64.6091 75.6718 64.7063 75.6274 64.8134C75.583 64.9205 75.5601 65.0353 75.5601 65.1512C75.5601 65.2671 75.583 65.3819 75.6274 65.489C75.6718 65.5961 75.7369 65.6934 75.819 65.7753C75.9844 65.9405 76.2087 66.0333 76.4426 66.0333C76.6765 66.0333 76.9008 65.9405 77.0662 65.7753H77.0637ZM64.423 94.9966H52.7604C52.0284 94.9957 51.3267 94.7045 50.8092 94.1868C50.2917 93.6692 50.0007 92.9674 50 92.2355V82.6904C50 80.4111 50.9055 78.2251 52.5173 76.6133C54.1291 75.0016 56.3152 74.0961 58.5947 74.0961C60.8741 74.0961 63.0602 75.0016 64.672 76.6133C66.2838 78.2251 67.1893 80.4111 67.1893 82.6904V92.2372C67.1884 92.9696 66.8969 93.6718 66.3787 94.1895C65.8605 94.7072 65.1581 94.9981 64.4256 94.9983L64.423 94.9966ZM58.5921 75.8C56.7654 75.8027 55.0143 76.5295 53.7226 77.8211C52.4309 79.1127 51.7041 80.8638 51.7014 82.6904V92.2372C51.7016 92.5174 51.813 92.786 52.011 92.9842C52.2091 93.1824 52.4776 93.294 52.7578 93.2944H64.4298C64.7101 93.294 64.9788 93.1824 65.1769 92.9843C65.3751 92.7861 65.4867 92.5174 65.4871 92.2372V82.6904C65.4844 80.863 64.757 79.1114 63.4644 77.8196C62.1718 76.5279 60.4196 75.8015 58.5921 75.8Z" fill="black"/>
</g>
<defs>
<clipPath id="clip0_305_668">
<rect width="40" height="40" fill="white" transform="translate(50 55)"/>
</clipPath>
</defs>
</symbol>
<!---->
<symbol id="employeeicon" viewBox="0 0 150 150" fill="none" xmlns="http://www.w3.org/2000/svg">
<path d="M69.9868 149.013C89.6164 149.013 108.442 141.215 122.322 127.335C136.202 113.455 144 94.6295 144 75C144 55.3705 136.202 36.5449 122.322 22.6648C108.442 8.78461 89.6164 0.986816 69.9868 0.986816" stroke="black" stroke-linecap="round"/>
<path d="M70.0658 138.158C86.8163 138.158 102.881 131.504 114.725 119.659C126.57 107.815 133.224 91.7505 133.224 74.9999L70.0658 74.9999L70.0658 138.158Z" fill="#B6D5FF"/>
<path d="M133.224 74.9999C133.224 62.5085 129.52 50.2975 122.58 39.9113C115.64 29.525 105.776 21.4299 94.2353 16.6496C82.6947 11.8694 69.9957 10.6186 57.7443 13.0556C45.4929 15.4926 34.2392 21.5078 25.4064 30.3406C16.5736 39.1734 10.5584 50.427 8.12147 62.6785C5.6845 74.9299 6.93525 87.6288 11.7155 99.1694C16.4958 110.71 24.5909 120.574 34.9772 127.514C45.3634 134.454 57.5744 138.158 70.0658 138.158L70.0658 74.9999L133.224 74.9999Z" fill="#2F80ED"/>
<path d="M70.0658 113.487C48.2651 113.487 30.5921 95.8139 30.5921 74.0132C30.5921 52.2125 48.2651 34.5396 70.0658 34.5396C91.8665 34.5396 109.539 52.2125 109.539 74.0132C109.539 95.8139 91.8665 113.487 70.0658 113.487Z" fill="white"/>
<g clip-path="url(#clip0_311_940)">
<path d="M50 89.6595C49.9996 88.8327 50.0666 88.0072 50.2004 87.1914C50.2568 86.8505 50.3212 86.5123 50.4097 86.1803C51.8769 80.707 55.3481 77.1855 60.7401 75.5584L61.0845 75.4531C58.856 73.2629 57.7932 70.6481 58.0759 67.5575C58.3049 65.1037 59.3606 63.0295 61.2026 61.4014C64.8536 58.1705 70.1749 58.2001 73.7722 61.4824C75.8039 63.3362 76.8399 65.6847 76.8542 68.439C76.8686 71.1932 75.7968 73.5093 73.7937 75.4549C74.1677 75.5647 74.4799 75.6492 74.7876 75.7473C77.68 76.6667 80.2114 78.4775 82.0237 80.9232C83.8361 83.369 84.8375 86.3258 84.8863 89.3753C84.8979 90.1624 84.5284 90.7371 83.8709 90.9368C83.2768 91.1167 82.5808 90.8963 82.2775 90.3441C82.1273 90.0397 82.0449 89.706 82.036 89.3663C81.7899 84.6989 79.6205 81.2638 75.4962 79.1122C73.9691 78.3153 72.3176 77.9528 70.5936 77.9483C68.4814 77.9438 66.3682 77.9213 64.2551 77.9528C61.5009 77.9905 58.8507 79.0161 56.7821 80.8447C54.7135 82.6734 53.3626 85.1847 52.9729 87.9262C52.909 88.4303 52.872 88.9374 52.8619 89.4455C52.8333 90.2352 52.4003 90.8325 51.7338 90.9665C51.0074 91.1131 50.4026 90.7632 50.0734 90.0068C50.0289 89.8965 50.0041 89.7793 50 89.6604V89.6595ZM67.4346 61.8916C66.5743 61.8905 65.7221 62.0602 64.9271 62.3909C64.1321 62.7217 63.4098 63.2069 62.8016 63.8188C62.1935 64.4308 61.7115 65.1574 61.3832 65.957C61.0549 66.7566 60.8868 67.6135 60.8886 68.4785C60.8929 70.2261 61.5857 71.9008 62.8155 73.1359C64.0452 74.371 65.7117 75.0658 67.4498 75.0681C71.0534 75.0636 74.0111 72.0855 74.0066 68.4641C74.0009 66.7167 73.3056 65.0429 72.0733 63.8106C70.8411 62.5782 69.1727 61.888 67.4346 61.8916ZM88.4219 70.2505C89.3594 70.2505 90.0081 69.6488 90 68.8005C89.9911 67.973 89.3478 67.383 88.4344 67.3812C85.9968 67.3776 83.5589 67.3776 81.1208 67.3812C80.21 67.3812 79.5668 67.9784 79.5623 68.8086C79.5578 69.6389 80.2082 70.2478 81.1082 70.2478C82.3267 70.2523 83.5461 70.2478 84.7655 70.2478C85.9849 70.2478 87.2016 70.2532 88.4219 70.2505ZM81.1002 62.4403C80.2154 62.4403 79.5793 63.0223 79.5623 63.8363C79.5453 64.6503 80.1885 65.3034 81.0832 65.307C83.5506 65.3147 86.0183 65.3147 88.4863 65.307C89.363 65.307 89.9937 64.6899 89.9991 63.8768C90.0045 63.0457 89.3621 62.4439 88.4577 62.4376C87.2392 62.4376 86.0198 62.4376 84.8004 62.4376C83.5676 62.4394 82.3339 62.4367 81.1002 62.4403ZM86.026 75.195C86.9144 75.1869 87.5263 74.6004 87.5272 73.7684C87.5281 72.9364 86.901 72.3346 86.0278 72.3292C84.3763 72.3184 82.7248 72.3184 81.0733 72.3292C80.1975 72.3346 79.5632 72.9526 79.5623 73.7684C79.5614 74.5842 80.1993 75.1905 81.0707 75.1977C81.8893 75.2049 82.7078 75.1977 83.5264 75.1977C84.3593 75.1959 85.1931 75.2013 86.026 75.195Z" fill="black"/>
</g>
<defs>
<clipPath id="clip0_311_940">
<rect width="40" height="40" fill="white" transform="translate(50 55)"/>
</clipPath>
</defs>
</symbol>
<!---->
<symbol id="happycustomericon" xmlns="http://www.w3.org/2000/svg" viewBox="0 0 36 36" fill="none">
  <g clip-path="url(#clip0_389_700)">
    <path d="M19.3939 1.15018C19.9602 2.1889 20.7603 2.81246 21.9375 2.97158C22.2263 3.01116 22.5038 3.12666 22.7861 3.21874C23.5951 3.4861 23.8556 4.25666 23.3524 4.94242C22.9058 5.5474 22.4277 6.12895 21.986 6.73717C21.8725 6.89396 21.8114 7.08246 21.8113 7.27591C21.8113 8.00286 21.8574 8.7298 21.8687 9.45675C21.8824 10.3864 21.2215 10.8541 20.3316 10.5488C19.6593 10.317 18.9959 10.0585 18.3179 9.84526C18.1073 9.77931 17.8814 9.77931 17.6707 9.84526C16.9928 10.0585 16.3286 10.317 15.6563 10.5488C14.7664 10.8541 14.1095 10.3872 14.124 9.45595C14.1345 8.74435 14.1831 8.03275 14.179 7.32034C14.1772 7.10107 14.108 6.88765 13.9808 6.7089C13.5674 6.12976 13.1176 5.57809 12.6864 5.01269C12.1112 4.25505 12.3693 3.47156 13.2794 3.2034C13.9614 3.00228 14.6491 2.81812 15.3238 2.59599C15.5199 2.52593 15.6915 2.40084 15.8181 2.23575C16.1878 1.74224 16.5066 1.20995 16.8803 0.719665C16.9962 0.572437 17.1219 0.433192 17.2565 0.302882C17.352 0.207583 17.4655 0.132151 17.5903 0.0809582C17.7152 0.0297657 17.8491 0.00383137 17.9841 0.00465782C18.1191 0.00548426 18.2526 0.0330546 18.3768 0.0857723C18.5011 0.13849 18.6136 0.215306 18.7079 0.311767C18.9692 0.571852 19.2232 0.837591 19.3939 1.15018ZM22.702 18.7843C22.4237 16.3611 20.5985 14.6391 18.1715 14.5034C15.9686 14.379 13.9007 15.9573 13.3903 18.1648C13.0804 19.5064 13.3231 20.7543 14.0876 21.8908C14.8521 23.0272 15.9483 23.6508 17.2638 23.9472C17.1801 23.9653 17.0945 23.9731 17.009 23.9706C13.5407 24.0619 10.744 26.5408 10.3257 29.9889C10.1914 31.102 10.2521 32.2401 10.2529 33.3668C10.2529 34.8708 11.3742 35.9895 12.8806 35.9927C16.2962 35.9997 19.7121 35.9997 23.1283 35.9927C24.6121 35.9927 25.7277 34.8716 25.743 33.3919C25.7528 32.5034 25.8013 31.6149 25.7269 30.7345C25.6605 29.9542 25.5424 29.1538 25.2843 28.4187C24.4689 26.0909 22.0985 23.9359 18.7378 23.9432C21.6147 23.3608 22.9398 20.8528 22.702 18.7843ZM32.8486 33.3943C34.1374 33.3555 35.151 32.2562 35.1947 30.9631C35.2182 30.2789 35.2255 29.5899 35.1947 28.9082C35.0977 26.7314 34.0937 25.074 32.2443 23.9343C31.2613 23.3285 30.1683 23.0854 28.9589 23.0926C31.2646 22.3237 32.4643 20.68 32.1698 18.7552C31.8673 16.7819 30.2954 15.3798 28.3675 15.3628C26.4922 15.3466 24.8442 16.6988 24.5247 18.5129C24.1517 20.6275 25.2398 22.2244 27.6871 23.0894C26.4016 23.0894 25.2496 23.3697 24.2084 24.0676C24.2357 24.1087 24.2666 24.1473 24.3006 24.1831C26.4979 26.0408 27.5318 28.4107 27.463 31.2764C27.446 31.9711 27.463 32.6673 27.463 33.4048C29.3003 33.4096 31.0801 33.45 32.8486 33.3967V33.3943ZM11.5166 18.8231C11.2892 16.8845 9.71329 15.425 7.81858 15.3668C5.92387 15.3087 4.22738 16.6236 3.87303 18.441C3.45801 20.5734 4.54208 22.1953 7.00471 23.0854C6.87932 23.0918 6.7879 23.0983 6.69568 23.0999C3.88112 23.1686 1.48887 25.0821 0.937126 27.8299C0.750245 28.7644 0.797168 29.7515 0.791505 30.7151C0.781797 32.337 1.87558 33.4104 3.49684 33.4137C5.04259 33.418 6.58862 33.418 8.13491 33.4137C8.25221 33.4137 8.37033 33.4024 8.51352 33.3951C8.52 33.2449 8.53132 33.114 8.53213 32.9832C8.53213 32.2045 8.52647 31.4259 8.54022 30.648C8.57582 28.5964 9.28451 26.7952 10.6161 25.2404C10.9689 24.8284 11.3621 24.4496 11.7488 24.0401C10.7326 23.3786 9.59275 23.0943 8.36709 23.0757C10.9139 22.4352 11.6946 20.3367 11.5166 18.8255V18.8231ZM2.25582 11.5714C2.25506 11.7064 2.28601 11.8397 2.3462 11.9606C2.40638 12.0815 2.49413 12.1866 2.60238 12.2675C2.71063 12.3484 2.83638 12.4028 2.96952 12.4264C3.10266 12.45 3.23949 12.4421 3.36902 12.4033C3.60497 12.3509 3.83409 12.2715 4.05182 12.1666C5.02264 11.6465 5.97727 11.6416 6.94566 12.1578C7.116 12.2375 7.29271 12.3029 7.47395 12.3532C8.2328 12.6085 8.79263 12.2046 8.77969 11.4017C8.77079 10.8517 8.71659 10.3016 8.73519 9.75238C8.74663 9.49367 8.82707 9.2427 8.96819 9.02543C9.27238 8.56826 9.63158 8.14825 9.96489 7.70966C10.4835 7.02714 10.2739 6.39308 9.4447 6.13622C9.21901 6.05345 8.9872 5.98837 8.75137 5.94156C7.84043 5.80829 7.17299 5.36081 6.76849 4.51917C6.64794 4.26797 6.46106 4.04746 6.29522 3.81969C5.84945 3.20582 5.17231 3.20744 4.7322 3.82776C4.38352 4.32047 4.0591 4.83176 3.69828 5.31558C3.57881 5.46975 3.41769 5.58661 3.23391 5.6524C2.67569 5.84221 2.1013 5.99164 1.53499 6.16207C0.763999 6.39469 0.556891 7.04006 1.04311 7.68866C1.20387 7.92042 1.37698 8.1434 1.56169 8.35664C2.13932 8.97374 2.51955 9.64899 2.25258 10.4204C2.25339 10.8759 2.24288 11.2257 2.25582 11.5738V11.5714ZM27.2122 11.3145C27.1944 12.228 27.7284 12.6198 28.5875 12.3201C29.208 12.1036 29.8286 11.7143 30.4483 11.7151C31.0825 11.7151 31.7346 12.056 32.3446 12.325C33.1382 12.6739 33.8227 12.123 33.7458 11.3315C33.6819 10.6667 33.5541 9.94058 33.7523 9.33883C33.9505 8.73707 34.5176 8.25487 34.9213 7.72339C35.4407 7.03521 35.2384 6.39873 34.4181 6.1443C33.766 5.94156 33.0096 5.88421 32.4886 5.50378C31.9676 5.12334 31.6796 4.41901 31.2856 3.86007C30.818 3.19694 30.1408 3.1929 29.6765 3.852C29.3674 4.29059 29.0543 4.72756 28.7679 5.1815C28.6925 5.31386 28.59 5.42896 28.4673 5.51938C28.3445 5.60981 28.2041 5.67356 28.0552 5.70652C27.5075 5.83737 26.9695 6.01022 26.4323 6.17984C25.7544 6.39227 25.5424 7.03844 25.9518 7.61354C26.1453 7.90407 26.36 8.17998 26.5941 8.43903C27.1645 9.02785 27.4557 9.68857 27.2106 10.4793C27.213 10.7806 27.2171 11.0488 27.2122 11.3169V11.3145Z" fill="white"/>
  </g>
  <defs>
    <clipPath id="clip0_389_700">
      <rect width="36" height="36" fill="white"/>
    </clipPath>
  </defs>
</symbol>
<!---->
<symbol id="teamgrowthicon" xmlns="http://www.w3.org/2000/svg" width="36" height="36" viewBox="0 0 36 36" fill="none">
  <path d="M28.3557 33.6997C27.5731 33.3991 27.4039 33.1228 27.4039 32.2225V15.9501C26.9918 15.9501 26.6012 15.9501 26.2114 15.9501C25.9565 15.9501 25.651 15.962 25.5816 15.6865C25.5404 15.4534 25.5871 15.2134 25.7128 15.0122C27.1199 12.8119 28.545 10.6228 29.9693 8.43216C30.2994 7.92402 30.6646 7.9218 30.9926 8.42625C32.4236 10.6272 33.8493 12.8309 35.2699 15.0373C35.3876 15.2298 35.4293 15.4587 35.3869 15.6798C35.3124 15.9575 35.0142 15.9531 34.7601 15.9501C34.4038 15.9457 34.0468 15.9501 33.6421 15.9501V32.221C33.6421 33.1228 33.4744 33.3983 32.6926 33.6982C31.2976 34.234 29.751 34.2345 28.3557 33.6997ZM22.9209 33.7373C23.7243 33.436 23.9643 33.1354 23.9643 32.3968C23.9643 27.7822 23.9643 23.1673 23.9643 18.5522C23.9643 18.01 23.8033 17.8557 23.2518 17.8549H18.493C17.861 17.8549 17.7298 17.9835 17.7298 18.6053V32.2292C17.7298 33.2321 17.9325 33.4552 18.9603 33.7964C20.248 34.2294 21.647 34.2085 22.9209 33.7373ZM14.4915 33.6893C15.2494 33.3828 15.4089 33.1073 15.4089 32.2122V23.8345C15.4089 23.1698 15.2778 23.0427 14.5995 23.0427C13.0379 23.0427 11.4769 23.0427 9.91677 23.0427C9.31531 23.0427 9.17146 23.1845 9.17146 23.7813C9.17146 26.5982 9.17146 29.4154 9.17146 32.2328C9.17146 33.2543 9.38164 33.4655 10.4623 33.8156C11.7781 34.2478 13.2059 34.203 14.4915 33.6893ZM5.5843 33.7314C5.7861 33.7332 5.9855 33.6879 6.16639 33.5992C6.59718 33.3836 6.85281 33.029 6.85207 32.4662C6.85207 31.2734 6.85207 30.0799 6.85207 28.8871C6.85128 28.7163 6.78235 28.5527 6.66032 28.432C6.53828 28.3114 6.37305 28.2434 6.20067 28.243C4.55354 28.2391 2.90666 28.2391 1.26002 28.243C0.768867 28.243 0.623537 28.3967 0.622047 28.8893C0.622047 29.9972 0.654092 31.105 0.610119 32.2129C0.588505 32.7572 0.719679 33.1731 1.0573 33.453C1.29064 33.639 1.58216 33.7385 1.88161 33.7344L5.5843 33.7314ZM20.4584 2.0346H20.4539C19.0572 2.24878 18.0451 3.45488 18.1152 4.82495C18.1472 5.50113 18.4321 6.14128 18.9143 6.62076C19.3965 7.10023 20.0415 7.38472 20.7237 7.41883C22.0586 7.49712 23.3323 6.47936 23.5306 5.17429C23.7541 3.73554 22.903 2.44155 21.507 2.0863L21.3908 2.05749C21.0847 1.98951 20.7682 1.98174 20.4591 2.0346H20.4584ZM5.50977 26.336C6.41755 26.336 6.85132 25.9069 6.85132 25.0014C6.85132 23.5619 6.85878 22.121 6.84611 20.6837C6.84611 20.4222 6.92957 20.3026 7.17329 20.1992C9.01494 19.4133 10.4526 18.1607 11.5087 16.4686C12.0066 15.6688 11.8166 14.8142 11.0385 14.3208C10.2932 13.8511 9.41816 14.052 8.91806 14.8379C8.13101 16.0764 7.0615 17.0004 5.77808 17.6969C4.32324 18.4864 2.74691 18.9525 1.16612 19.4067C0.664524 19.5544 0.592235 19.6416 0.594471 20.1586C0.602917 21.8189 0.61186 23.4795 0.621301 25.1403C0.626518 25.8789 1.08414 26.3287 1.83168 26.3353C2.46295 26.3405 3.09497 26.3353 3.72699 26.3353L5.50977 26.336ZM11.8628 13.7898C12.8399 14.75 12.9688 15.8792 12.2354 17.0263C11.4901 18.194 10.5704 19.1969 9.42114 19.9806C9.17146 20.1504 9.17221 20.3041 9.29369 20.5264C9.53965 20.9791 9.9369 21.1438 10.4333 21.1424C11.6593 21.1424 12.8853 21.1424 14.1114 21.1424C14.9729 21.1424 15.4045 20.6992 15.406 19.838C15.406 18.4111 15.4149 16.9842 15.4 15.5543C15.4 15.2588 15.4797 15.1037 15.7659 14.9826C17.6106 14.199 19.0401 12.9316 20.0887 11.238C20.568 10.4618 20.3593 9.61315 19.5886 9.12495C18.8687 8.67146 18.0086 8.86201 17.5092 9.5873C17.39 9.75939 17.2782 9.93664 17.1552 10.1043C15.9731 11.724 14.3074 12.6517 12.4709 13.3363L11.7256 13.6148C11.7683 13.6754 11.8141 13.7338 11.8628 13.7898ZM20.4204 8.59982C21.3982 9.5681 21.5242 10.6893 20.793 11.8363C20.0672 13.0002 19.1096 14.0055 17.9788 14.7906C17.7552 14.9442 17.7216 15.086 17.8364 15.3076C18.0652 15.7456 18.4274 15.9472 18.9201 15.9465C20.1707 15.9465 21.4213 15.9465 22.672 15.9465C23.535 15.9465 23.9628 15.5129 23.9643 14.6451C23.9643 13.2063 23.9733 11.7646 23.9576 10.3288C23.9576 10.0533 24.0374 9.91966 24.2945 9.81183C26.1399 9.03115 27.5738 7.77187 28.627 6.08053C29.1219 5.28434 28.9251 4.42537 28.1425 3.93865C27.4069 3.47926 26.5662 3.68532 26.0407 4.43424C25.7657 4.84249 25.4647 5.233 25.1397 5.60341C23.9956 6.85899 22.5259 7.60274 20.9548 8.18031C20.7394 8.25859 20.5255 8.34132 20.2758 8.43586C20.3451 8.51341 20.3794 8.56141 20.4204 8.60277V8.59982ZM9.55679 9.89307C9.55081 10.2517 9.61691 10.6079 9.75125 10.9409C9.88559 11.2739 10.0855 11.5771 10.3393 11.8328C10.5931 12.0885 10.8957 12.2916 11.2295 12.4302C11.5633 12.5688 11.9216 12.6402 12.2835 12.6402C12.6454 12.6402 13.0037 12.5688 13.3375 12.4302C13.6713 12.2916 13.9739 12.0885 14.2277 11.8328C14.4815 11.5771 14.6814 11.2739 14.8157 10.9409C14.9501 10.6079 15.0162 10.2517 15.0102 9.89307C14.9984 9.18417 14.7059 8.50826 14.1958 8.01109C13.6858 7.51391 12.999 7.23529 12.2835 7.23529C11.568 7.23529 10.8812 7.51391 10.3712 8.01109C9.86109 8.50826 9.56862 9.18417 9.55679 9.89307ZM6.45184 15.1119C6.45553 14.5771 6.29894 14.0533 6.00193 13.6068C5.70492 13.1603 5.28085 12.8113 4.78346 12.6039C4.28606 12.3964 3.73773 12.34 3.20794 12.4417C2.67815 12.5434 2.19076 12.7987 1.80751 13.1752C1.42425 13.5516 1.16239 14.0324 1.05512 14.5565C0.947845 15.0806 0.999976 15.6244 1.20491 16.1191C1.40984 16.6138 1.75835 17.0371 2.20628 17.3354C2.65421 17.6336 3.18139 17.7933 3.72103 17.7944C4.44189 17.7967 5.13425 17.5156 5.6462 17.0127C6.15816 16.5098 6.44789 15.8262 6.45184 15.1119Z" fill="black"/>
</symbol>
<!---->
<symbol id="growthrate" xmlns="http://www.w3.org/2000/svg" width="36" height="36" viewBox="0 0 36 36" fill="none">
  <g clip-path="url(#clip0_389_725)">
    <path d="M19.3915 1.25471C21.2735 2.87075 23.1588 4.48491 25.0474 6.0972C25.1325 6.17089 25.2112 6.25159 25.3378 6.3709H22.2384V27.482H13.7876V6.39687H10.6235C10.8021 6.23615 10.9048 6.14001 11.0095 6.04596C13.2244 4.15108 17.877 0.112167 17.9979 -0.00292969C18.4612 0.418156 18.9141 0.846962 19.3915 1.25471ZM25.2422 35.9999C24.2213 33.9281 23.198 31.8578 22.1723 29.7889C22.1392 29.7407 22.0956 29.7006 22.0449 29.6714C21.9942 29.6423 21.9375 29.6248 21.8791 29.6204C19.2931 29.6111 16.7072 29.6111 14.1216 29.6204C14.0631 29.6248 14.0064 29.6423 13.9556 29.6716C13.9049 29.7009 13.8614 29.7412 13.8284 29.7896C12.7971 31.8557 11.7736 33.9258 10.7578 35.9999H25.2422ZM8.36719 35.9999C8.39672 35.95 11.4806 29.7117 11.5172 29.6134C11.3836 29.6134 7.49883 29.6183 5.66086 29.6078C5.55822 29.6025 5.45588 29.6229 5.36316 29.6671C5.27043 29.7114 5.19028 29.7781 5.13 29.8612C3.65015 31.6391 2.16562 33.4156 0.676406 35.1907C0.465468 35.4461 0.225703 35.682 0 35.9297C0.0935156 35.9529 5.67141 35.9999 8.36719 35.9999ZM36 35.9297C35.8945 35.8265 32.4844 31.8024 30.8939 29.8864C30.8269 29.7941 30.7378 29.7201 30.6348 29.671C30.5317 29.622 30.418 29.5995 30.304 29.6057C28.4899 29.619 24.6185 29.6239 24.468 29.631C24.5735 29.8478 26.6709 34.0664 27.6321 35.9992C30.3279 35.9999 35.9065 35.9529 36 35.9297ZM11.6719 27.0462C11.6719 23.7154 11.6719 20.3844 11.6719 17.0531C11.6719 16.4692 11.8055 15.8341 11.6177 15.3162C11.43 14.7982 10.9146 14.3968 10.5455 13.9469C10.2277 13.5637 9.90562 13.1841 9.56109 12.7749L4.28765 19.0954H6.40547V27.4939H11.6789L11.6719 27.0462ZM26.4375 12.77C25.7843 13.5525 25.155 14.288 24.551 15.0446C24.4212 15.214 24.3475 15.4195 24.3401 15.6327C24.3274 19.4547 24.3309 23.2768 24.3309 27.0988V27.4834H29.6156V19.0786H31.7067L26.4375 12.77Z" fill="white"/>
  </g>
  <defs>
    <clipPath id="clip0_389_725">
      <rect width="36" height="36" fill="white"/>
    </clipPath>
  </defs>
</symbol>
<!---->
<symbol id="stopicon" xmlns="http://www.w3.org/2000/svg" width="128" height="128" viewBox="0 0 128 128" fill="none">
  <g filter="url(#filter0_di_21_15133)">
    <path d="M104 60.0016C104 67.9132 101.654 75.6471 97.2586 82.2253C92.8631 88.8036 86.6157 93.9307 79.3064 96.9583C71.9971 99.9859 63.9541 100.778 56.1945 99.2346C48.435 97.6911 41.3074 93.8814 35.713 88.287C30.1187 82.6927 26.3089 75.5651 24.7655 67.8055C23.222 60.046 24.0141 52.003 27.0418 44.6937C30.0694 37.3843 35.1965 31.1369 41.7747 26.7415C48.353 22.3461 56.0869 20 63.9984 20C69.2516 19.9996 74.4535 21.034 79.3069 23.0441C84.1603 25.0542 88.5702 28.0007 92.2848 31.7153C95.9994 35.4298 98.9459 39.8398 100.956 44.6932C102.966 49.5466 104 54.7484 104 60.0016Z" fill="white"/>
  </g>
  <path d="M57.8983 60.678V49.8306L66.7108 55.2543L75.5254 60.678L66.7108 66.1017L57.8983 71.5255V60.678Z" fill="#2F80ED"/>
  <defs>
    <filter id="filter0_di_21_15133" x="-0.00318718" y="0" width="128.003" height="128.003" filterUnits="userSpaceOnUse" color-interpolation-filters="sRGB">
      <feFlood flood-opacity="0" result="BackgroundImageFix"/>
      <feColorMatrix in="SourceAlpha" type="matrix" values="0 0 0 0 0 0 0 0 0 0 0 0 0 0 0 0 0 0 127 0" result="hardAlpha"/>
      <feOffset dy="4"/>
      <feGaussianBlur stdDeviation="12"/>
      <feComposite in2="hardAlpha" operator="out"/>
      <feColorMatrix type="matrix" values="0 0 0 0 0 0 0 0 0 0 0 0 0 0 0 0 0 0 0.1 0"/>
      <feBlend mode="normal" in2="BackgroundImageFix" result="effect1_dropShadow_21_15133"/>
      <feBlend mode="normal" in="SourceGraphic" in2="effect1_dropShadow_21_15133" result="shape"/>
      <feColorMatrix in="SourceAlpha" type="matrix" values="0 0 0 0 0 0 0 0 0 0 0 0 0 0 0 0 0 0 127 0" result="hardAlpha"/>
      <feOffset dy="4"/>
      <feGaussianBlur stdDeviation="2"/>
      <feComposite in2="hardAlpha" operator="arithmetic" k2="-1" k3="1"/>
      <feColorMatrix type="matrix" values="0 0 0 0 0 0 0 0 0 0 0 0 0 0 0 0 0 0 0.06 0"/>
      <feBlend mode="normal" in2="shape" result="effect2_innerShadow_21_15133"/>
    </filter>
  </defs>
</symbol>
<!---->
<symbol id="playicon" width="128" height="128" viewBox="0 0 128 128" fill="none" xmlns="http://www.w3.org/2000/svg">
<g filter="url(#filter0_di_654_301)">
<path d="M104 60.0016C104 67.9132 101.654 75.6471 97.2586 82.2253C92.8631 88.8036 86.6157 93.9307 79.3064 96.9583C71.9971 99.9859 63.9541 100.778 56.1945 99.2346C48.435 97.6911 41.3074 93.8814 35.713 88.287C30.1187 82.6927 26.3089 75.5651 24.7655 67.8055C23.222 60.046 24.0142 52.003 27.0418 44.6937C30.0694 37.3843 35.1965 31.1369 41.7747 26.7415C48.353 22.3461 56.0869 20 63.9985 20C69.2517 19.9996 74.4535 21.034 79.3069 23.0441C84.1603 25.0542 88.5702 28.0007 92.2848 31.7153C95.9994 35.4298 98.9459 39.8398 100.956 44.6932C102.966 49.5466 104 54.7484 104 60.0016Z" fill="white"/>
</g>
<mask id="path-2-inside-1_654_301" fill="white">
<path d="M59 60V50V70V60Z"/>
</mask>
<path d="M61 60V50H57V60H61ZM61 70V60H57V70H61ZM57 50V70H61V50H57Z" fill="#2F80ED" mask="url(#path-2-inside-1_654_301)"/>
<mask id="path-4-inside-2_654_301" fill="white">
<path d="M69 60V50V70V60Z"/>
</mask>
<path d="M71 60V50H67V60H71ZM71 70V60H67V70H71ZM67 50V70H71V50H67Z" fill="#2F80ED" mask="url(#path-4-inside-2_654_301)"/>
<defs>
<filter id="filter0_di_654_301" x="-0.00317383" y="0" width="128.003" height="128.003" filterUnits="userSpaceOnUse" color-interpolation-filters="sRGB">
<feFlood flood-opacity="0" result="BackgroundImageFix"/>
<feColorMatrix in="SourceAlpha" type="matrix" values="0 0 0 0 0 0 0 0 0 0 0 0 0 0 0 0 0 0 127 0" result="hardAlpha"/>
<feOffset dy="4"/>
<feGaussianBlur stdDeviation="12"/>
<feComposite in2="hardAlpha" operator="out"/>
<feColorMatrix type="matrix" values="0 0 0 0 0 0 0 0 0 0 0 0 0 0 0 0 0 0 0.1 0"/>
<feBlend mode="normal" in2="BackgroundImageFix" result="effect1_dropShadow_654_301"/>
<feBlend mode="normal" in="SourceGraphic" in2="effect1_dropShadow_654_301" result="shape"/>
<feColorMatrix in="SourceAlpha" type="matrix" values="0 0 0 0 0 0 0 0 0 0 0 0 0 0 0 0 0 0 127 0" result="hardAlpha"/>
<feOffset dy="4"/>
<feGaussianBlur stdDeviation="2"/>
<feComposite in2="hardAlpha" operator="arithmetic" k2="-1" k3="1"/>
<feColorMatrix type="matrix" values="0 0 0 0 0 0 0 0 0 0 0 0 0 0 0 0 0 0 0.06 0"/>
<feBlend mode="normal" in2="shape" result="effect2_innerShadow_654_301"/>
</filter>
</defs>
</symbol>
<!---->
<symbol id="spmalefemaleicon" width="150" height="151" viewBox="0 0 150 151" fill="none" xmlns="http://www.w3.org/2000/svg">
<path d="M0.97368 75.0132C0.973681 55.3836 8.77147 36.5581 22.6516 22.678C36.5318 8.79779 55.3573 0.999999 74.9868 1C94.6164 1 113.442 8.79779 127.322 22.678C141.202 36.5581 149 55.3836 149 75.0132" stroke="black" stroke-linecap="round"/>
<path d="M12 75.9999C12 63.5085 15.7041 51.2975 22.644 40.9113C29.5839 30.525 39.4478 22.4299 50.9884 17.6496C62.529 12.8694 75.228 11.6186 87.4794 14.0556C99.7308 16.4926 110.984 22.5078 119.817 31.3406C128.65 40.1734 134.665 51.427 137.102 63.6785C139.539 75.9299 138.288 88.6288 133.508 100.169C128.728 111.71 120.633 121.574 110.247 128.514C99.8603 135.454 87.6493 139.158 75.1579 139.158L75.1579 75.9999L12 75.9999Z" fill="#2F80ED"/>
<path d="M75.1579 139.158C66.8639 139.158 58.6511 137.524 50.9884 134.35C43.3257 131.176 36.3633 126.524 30.4985 120.659C24.6338 114.795 19.9816 107.832 16.8076 100.169C13.6336 92.5067 12 84.2939 12 75.9999L75.1579 75.9999L75.1579 139.158Z" fill="#B6D5FF"/>
<path d="M75.1579 114.487C96.9586 114.487 114.632 96.8139 114.632 75.0132C114.632 53.2125 96.9586 35.5396 75.1579 35.5396C53.3572 35.5396 35.6842 53.2125 35.6842 75.0132C35.6842 96.8139 53.3572 114.487 75.1579 114.487Z" fill="white"/>
<g clip-path="url(#clip0_389_738)">
<path d="M94.5533 76.383C94.353 77.0246 94.0798 77.6265 93.4615 77.9631C93.1072 78.1537 92.7065 78.2582 92.3026 78.4124C92.3464 78.5027 92.4002 78.6246 92.4632 78.744C93.0123 79.762 93.5619 80.7792 94.1121 81.7955C94.9581 83.3656 94.0856 84.8628 92.2993 84.8885C91.4599 84.9018 90.6197 84.8885 89.7803 84.8885H89.2787V85.3619C89.2787 87.2503 89.2646 89.1388 89.2836 91.0264C89.2952 92.1571 88.8697 93.0118 87.8317 93.496C86.8897 93.9353 85.9278 93.7165 85.0934 92.9654C84.7002 93.3608 84.3988 93.5391 83.5586 93.6493C82.0098 93.9453 80.7144 92.8013 80.7011 91.1839C80.6862 89.2681 80.7011 87.3523 80.7011 85.4365V84.8885H80.2334C79.3386 84.8885 78.4437 84.9009 77.5489 84.8885C75.9256 84.8603 75.0407 83.3582 75.7998 81.9207C76.3585 80.8612 76.9355 79.8125 77.5034 78.7581C77.5737 78.6271 77.6383 78.4928 77.7227 78.327C77.5464 78.3021 77.4015 78.2897 77.2608 78.2598C75.6723 77.9216 74.943 76.155 75.8362 74.7606C76.8403 73.1955 77.899 71.6668 78.8866 70.0926C79.7972 68.6377 80.8783 67.3909 82.5984 66.7418C81.0554 65.6508 80.2905 64.2183 80.4462 62.3721C80.548 61.1527 81.091 60.1338 82.0189 59.3355C82.4782 58.9435 83.0102 58.6463 83.5845 58.4608C84.1588 58.2754 84.764 58.2055 85.3654 58.255C85.9668 58.3045 86.5524 58.4726 87.0888 58.7495C87.6251 59.0264 88.1015 59.4067 88.4906 59.8685C90.0634 61.7388 90.0179 64.9022 87.436 66.7045C87.5395 66.7633 87.6231 66.8205 87.7133 66.8611C88.8807 67.3748 89.874 68.2169 90.5725 69.2851C91.7623 71.0896 92.9427 72.9004 94.1138 74.7175C94.31 75.0226 94.4126 75.3882 94.5591 75.7256L94.5533 76.383ZM84.965 83.7379H92.2744C93.2156 83.7379 93.5418 83.194 93.0948 82.365C91.9723 80.2815 90.8481 78.199 89.7224 76.1177C89.0775 74.9198 88.4244 73.7252 87.811 72.5107C87.7133 72.3184 87.7423 72.0001 87.8342 71.7962C87.8905 71.6726 88.2058 71.5723 88.3623 71.6154C88.5428 71.666 88.724 71.8583 88.8225 72.0357C89.6404 73.4997 90.4376 74.9754 91.243 76.4468C91.6205 77.1374 92.3092 77.372 92.8928 77.013C93.4764 76.6541 93.5873 75.9503 93.1668 75.3094C91.9814 73.5014 90.8076 71.6859 89.594 69.8969C87.3209 66.5478 82.5885 66.5726 80.3336 69.94C79.1531 71.7016 78 73.4815 76.8403 75.2564C76.4123 75.9113 76.5456 76.6267 77.1458 76.9766C77.7459 77.3264 78.3576 77.1175 78.7467 76.4054C79.5439 74.9455 80.3361 73.4823 81.1357 72.0241C81.3344 71.6627 81.6572 71.5491 81.9569 71.7091C82.2565 71.8691 82.3319 72.1949 82.1373 72.5704C81.86 73.1085 81.5794 73.6481 81.2905 74.1762C79.8154 76.897 78.3386 79.6172 76.8602 82.3368C76.4049 83.1758 76.741 83.737 77.6962 83.7379H84.965ZM84.965 66.227C85.6433 66.2309 86.3075 66.0329 86.8732 65.6582C87.4389 65.2835 87.8808 64.7488 88.1426 64.1222C88.4044 63.4956 88.4744 62.8052 88.3437 62.1386C88.213 61.4721 87.8875 60.8594 87.4085 60.3785C86.9295 59.8975 86.3186 59.5699 85.6534 59.4372C84.9882 59.3046 84.2986 59.3728 83.6722 59.6333C83.0458 59.8938 82.5107 60.3348 82.135 60.9004C81.7593 61.466 81.5599 62.1306 81.562 62.8098C81.564 63.7136 81.9226 64.58 82.5598 65.2201C83.1969 65.8602 84.0609 66.2221 84.9634 66.227H84.965ZM85.6273 84.9109C85.6079 84.948 85.5929 84.9872 85.5826 85.0278C85.5826 87.1467 85.5735 89.2656 85.5768 91.3853C85.5768 91.7841 85.7788 92.0983 86.0983 92.3229C86.5122 92.6156 86.9642 92.6637 87.4228 92.4249C87.6424 92.3217 87.8268 92.1559 87.9528 91.9483C88.0789 91.7407 88.141 91.5005 88.1313 91.2577C88.1313 89.2211 88.1313 87.1845 88.1313 85.148C88.1247 85.068 88.1117 84.9887 88.0924 84.9109H85.6273ZM81.8261 84.9109C81.8261 87.0016 81.8261 89.0501 81.8261 91.0985C81.8261 91.9109 82.3939 92.5078 83.134 92.4921C83.874 92.4763 84.3922 91.9002 84.3931 91.0977C84.3931 89.1722 84.3931 87.2462 84.3931 85.3196C84.3931 85.1878 84.3815 85.0551 84.3748 84.9109H81.8261ZM62.1012 94C61.9768 93.9932 61.8536 93.9729 61.7336 93.9395L61.7071 93.9312C60.3744 93.5789 59.617 92.6114 59.6137 91.2287C59.6079 88.9539 59.6137 86.68 59.6137 84.4052V83.9078C58.9945 84.1756 58.3976 84.3322 57.7528 84.1689C56.7023 83.9045 55.9118 82.9893 55.9068 81.9083C55.8928 78.6967 55.8812 75.4852 55.9118 72.2737C55.9308 70.357 57.5806 68.7156 59.4986 68.699C62.7336 68.6714 65.9686 68.6714 69.2036 68.699C71.0611 68.7156 72.6737 70.2584 72.7631 72.1195C72.8351 73.6324 72.797 75.1503 72.8012 76.6665C72.8012 78.3344 72.8111 80.0024 72.8012 81.6695C72.7904 83.0315 71.999 84.028 70.7218 84.1863C70.2143 84.2493 69.6796 84.0918 69.1125 84.0297V84.372C69.1125 86.5772 69.1125 88.7826 69.1125 90.9883C69.1125 92.6015 68.4826 93.4645 66.9603 93.9461C66.889 93.9752 66.8136 93.9928 66.7368 93.9983C66.2472 93.9988 65.7646 93.8816 65.3295 93.6568L64.2584 93.1022C64.0739 93.3292 63.8434 93.5143 63.5821 93.6452C63.1277 93.8824 62.6219 94.0037 62.1094 93.9983L62.1012 94ZM67.9594 83.0979H67.9545C67.9545 80.7419 67.9545 78.3853 67.9545 76.0282C67.9545 75.5457 67.9305 75.0607 67.9752 74.5824C67.9903 74.4857 68.0267 74.3935 68.0817 74.3125C68.1366 74.2315 68.2088 74.1638 68.293 74.114C68.4478 74.0436 68.75 74.0668 68.8568 74.1762C69.0126 74.3566 69.1004 74.586 69.1051 74.8245C69.1225 77.1399 69.12 79.4552 69.1117 81.7706C69.1117 82.1719 69.235 82.5018 69.5256 82.7613C69.9229 83.1111 70.3848 83.2015 70.8699 82.9901C71.4179 82.7513 71.6696 82.3037 71.6696 81.7085C71.6696 78.7036 71.6696 75.6991 71.6696 72.6948C71.6696 70.9191 70.5935 69.8405 68.8154 69.8389C65.8276 69.8345 62.8407 69.8345 59.8546 69.8389C58.0955 69.8389 57.0401 70.91 57.0351 72.6782C57.0351 75.1867 57.0351 77.695 57.0351 80.203C57.0351 80.7676 57.021 81.3338 57.045 81.8975C57.0609 82.2248 57.204 82.533 57.4438 82.756C57.6836 82.9791 58.0009 83.0994 58.3281 83.0912C59.0814 83.0846 59.5905 82.5176 59.5921 81.6612C59.5971 79.4287 59.5921 77.1962 59.5921 74.9629C59.5921 74.3105 59.7519 74.051 60.1592 74.051C60.5805 74.0452 60.7651 74.3279 60.7643 74.982C60.7593 80.3981 60.7546 85.8142 60.7502 91.2303C60.7502 92.182 61.381 92.8386 62.2535 92.8493C63.0366 92.8593 63.7758 92.1621 63.7625 91.2345C63.7236 88.5891 63.7485 85.9422 63.7485 83.296C63.7485 82.6568 63.9488 82.3451 64.3519 82.3526C64.7377 82.3601 64.9173 82.6535 64.9173 83.2811V91.3853C64.9173 92.0701 65.2956 92.6288 65.9156 92.8535C66.9421 93.2282 67.9511 92.478 67.9536 91.3273C67.9608 88.5817 67.9627 85.8385 67.9594 83.0979ZM64.3486 67.1388C63.4484 67.1367 62.569 66.8679 61.821 66.3663C61.073 65.8647 60.4898 65.1528 60.1449 64.3201C59.8001 63.4873 59.7088 62.571 59.8828 61.6865C60.0567 60.802 60.488 59.9887 61.1224 59.3492C61.7569 58.7096 62.566 58.2722 63.4481 58.0921C64.3301 57.912 65.2457 57.9972 66.0795 58.3371C66.9133 58.6769 67.6281 59.2561 68.1339 60.0018C68.6397 60.7476 68.914 61.6265 68.9222 62.528C68.9285 63.1325 68.8148 63.7323 68.5875 64.2924C68.3603 64.8525 68.0241 65.3618 67.5985 65.7905C67.1729 66.2193 66.6664 66.559 66.1084 66.7899C65.5505 67.0208 64.9523 67.1383 64.3486 67.1355V67.1388ZM60.929 62.5387C60.9325 63.4449 61.2943 64.3128 61.9351 64.9526C62.576 65.5924 63.4437 65.9519 64.3486 65.9526C66.2269 65.9526 67.7765 64.4106 67.7831 62.5404C67.7831 62.0897 67.6945 61.6434 67.5222 61.227C67.35 60.8106 67.0976 60.4323 66.7793 60.1136C66.4611 59.7949 66.0833 59.5421 65.6675 59.3696C65.2517 59.1971 64.8061 59.1084 64.3561 59.1084C63.906 59.1084 63.4604 59.1971 63.0446 59.3696C62.6288 59.5421 62.251 59.7949 61.9328 60.1136C61.6145 60.4323 61.3621 60.8106 61.1899 61.227C61.0177 61.6434 60.929 62.0897 60.929 62.5404V62.5387Z" fill="black"/>
</g>
<defs>
<clipPath id="clip0_389_738">
<rect width="40" height="40" fill="white" transform="translate(55.2236 56)"/>
</clipPath>
</defs>
</symbol>
<!---->
<symbol id="spoccupationicon" width="150" height="151" viewBox="0 0 150 151" fill="none" xmlns="http://www.w3.org/2000/svg">
<path d="M149.026 75.0132C149.026 55.3836 141.229 36.5581 127.348 22.678C113.468 8.79779 94.6427 0.999999 75.0132 1C55.3836 1 36.5581 8.79779 22.678 22.678C8.79779 36.5581 1 55.3836 1 75.0132" stroke="black" stroke-linecap="round"/>
<path d="M12 75.9999C12 64.3522 15.221 52.9313 21.3069 43C27.3929 33.0687 36.1066 25.0138 46.4848 19.7258C56.863 14.4379 68.5014 12.1229 80.1132 13.0367C91.725 13.9506 102.858 18.0578 112.281 24.9041L75.1579 75.9999L12 75.9999Z" fill="#2B66B6"/>
<path d="M112.281 24.9041C120.345 30.7626 126.907 38.4462 131.432 47.3269C135.957 56.2075 138.316 66.033 138.316 76C138.316 85.9669 135.957 95.7924 131.432 104.673C126.907 113.554 120.345 121.237 112.281 127.096L75.1579 75.9999L112.281 24.9041Z" fill="#2F80ED"/>
<path d="M112.281 127.096C101.491 134.935 88.4955 139.158 75.1579 139.158C61.8203 139.158 48.825 134.935 38.0346 127.096L75.1579 75.9999L112.281 127.096Z" fill="#5FA3FF"/>
<path d="M38.0346 127.096C27.2442 119.256 19.2127 108.202 15.0912 95.5168L75.1579 75.9999L38.0346 127.096Z" fill="#B6D5FF"/>
<path d="M15.0912 95.5168C13.0432 89.2137 12 82.6274 12 75.9999L75.1579 75.9999L15.0912 95.5168Z" fill="#E7F1FF"/>
<path d="M75.1579 114.487C96.9586 114.487 114.632 96.8139 114.632 75.0132C114.632 53.2125 96.9586 35.5396 75.1579 35.5396C53.3572 35.5396 35.6842 53.2125 35.6842 75.0132C35.6842 96.8139 53.3572 114.487 75.1579 114.487Z" fill="white"/>
<g clip-path="url(#clip0_389_756)">
<path d="M78.1536 71.1482C77.5325 71.1482 76.9685 71.1525 76.4036 71.1482C74.5565 71.1329 73.3927 69.9555 73.3919 68.1009C73.3919 65.0833 73.3919 62.0658 73.3919 59.0482C73.3919 57.1842 74.5795 56.0017 76.453 56C81.6819 56 86.9104 56 92.1386 56C94.0402 56 95.2168 57.1757 95.2185 59.0746C95.2185 62.078 95.2185 65.0813 95.2185 68.0847C95.2185 69.9845 94.0488 71.1457 92.1361 71.1516C89.5572 71.1516 86.9783 71.1619 84.3993 71.1431C84.2187 71.1372 84.0387 71.167 83.8697 71.2309C83.7007 71.2948 83.546 71.3915 83.4145 71.5154C82.2217 72.5599 81.0051 73.5805 79.8072 74.6207C79.4664 74.9146 79.1137 75.0688 78.6843 74.8712C78.2549 74.6735 78.145 74.2944 78.151 73.8489C78.1612 72.9688 78.1536 72.0913 78.1536 71.1482ZM79.9691 72.0854C80.9378 71.2573 81.8255 70.5127 82.6954 69.746C82.9976 69.4657 83.3979 69.3158 83.8098 69.3285C86.6281 69.3404 89.4473 69.337 92.2656 69.3336C93.0324 69.3336 93.3885 68.9826 93.3902 68.2167C93.3953 65.1293 93.3953 62.0419 93.3902 58.9545C93.3902 58.1775 93.0494 57.8317 92.2758 57.8317C86.9635 57.8271 81.6529 57.8271 76.344 57.8317C75.5823 57.8317 75.2185 58.1869 75.2168 58.9502C75.2094 62.0377 75.2094 65.1251 75.2168 68.2125C75.2168 68.975 75.5908 69.3285 76.3465 69.3336C77.1985 69.3387 78.0505 69.3336 78.8956 69.3336C79.63 69.3336 79.9614 69.6616 79.9734 70.3934C79.9759 70.914 79.9691 71.4353 79.9691 72.0828V72.0854ZM70.4415 66.4132C70.45 68.1672 69.7613 69.8528 68.527 71.099C67.2926 72.3453 65.6137 73.0502 63.8596 73.0587C62.1055 73.0672 60.4199 72.3785 59.1736 71.1442C57.9272 69.9099 57.2223 68.2311 57.2138 66.4771C57.1951 62.8138 60.1497 59.8243 63.7945 59.8099C65.551 59.806 67.2374 60.4991 68.4835 61.737C69.7297 62.975 70.4339 64.6567 70.4415 66.4132ZM68.6277 66.426C68.6253 65.4756 68.3412 64.5473 67.8112 63.7584C67.2812 62.9696 66.5292 62.3556 65.6502 61.9941C64.7712 61.6327 63.8048 61.54 62.8731 61.7277C61.9415 61.9155 61.0864 62.3753 60.4161 63.0491C59.7458 63.7228 59.2904 64.5802 59.1074 65.5127C58.9244 66.4453 59.0221 67.4112 59.3881 68.2883C59.7541 69.1653 60.3719 69.9142 61.1635 70.4401C61.9552 70.966 62.885 71.2453 63.8353 71.2428C64.4669 71.2434 65.0924 71.119 65.6757 70.8768C66.259 70.6347 66.7886 70.2795 67.2341 69.8318C67.6795 69.384 68.032 68.8526 68.2712 68.2681C68.5103 67.6836 68.6315 67.0575 68.6277 66.426ZM81.6978 59.7749C81.4583 59.7775 81.225 59.851 81.0273 59.9861C80.8296 60.1213 80.6764 60.312 80.5872 60.5342C80.4979 60.7564 80.4766 61.0001 80.5259 61.2345C80.5751 61.4688 80.6928 61.6833 80.8639 61.8508C81.0351 62.0182 81.2521 62.1312 81.4875 62.1753C81.7229 62.2194 81.966 62.1928 82.1862 62.0987C82.4065 62.0046 82.5938 61.8474 82.7246 61.6468C82.8555 61.4462 82.9239 61.2113 82.9212 60.9719C82.9218 60.8123 82.8904 60.6542 82.8288 60.5069C82.7672 60.3597 82.6767 60.2263 82.5626 60.1147C82.4485 60.0031 82.3132 59.9155 82.1646 59.8571C82.0161 59.7988 81.8573 59.7708 81.6978 59.7749ZM86.8948 64.9606C86.6553 64.9606 86.4212 65.0317 86.2221 65.1647C86.023 65.2978 85.8678 65.4869 85.7762 65.7082C85.6846 65.9294 85.6607 66.1729 85.7074 66.4077C85.7542 66.6426 85.8696 66.8583 86.039 67.0276C86.2084 67.1968 86.4242 67.3121 86.6591 67.3587C86.894 67.4053 87.1375 67.3812 87.3587 67.2894C87.5799 67.1977 87.7689 67.0424 87.9018 66.8432C88.0347 66.644 88.1056 66.4099 88.1054 66.1704C88.1077 66.011 88.078 65.8528 88.0182 65.7051C87.9583 65.5574 87.8694 65.4232 87.7568 65.3105C87.6442 65.1977 87.5101 65.1086 87.3625 65.0486C87.2149 64.9885 87.0567 64.9586 86.8973 64.9606H86.8948ZM82.2873 66.7753L87.4664 61.5964C87.6317 61.4309 87.7245 61.2066 87.7245 60.9727C87.7245 60.7389 87.6317 60.5146 87.4664 60.3491C87.3008 60.1838 87.0764 60.091 86.8424 60.091C86.6084 60.091 86.3839 60.1838 86.2183 60.3491L81.0426 65.5272C80.9605 65.6091 80.8955 65.7063 80.851 65.8134C80.8066 65.9205 80.7838 66.0353 80.7838 66.1512C80.7838 66.2671 80.8066 66.3819 80.851 66.489C80.8955 66.5961 80.9605 66.6934 81.0426 66.7753C81.2081 66.9405 81.4324 67.0333 81.6662 67.0333C81.9001 67.0333 82.1244 66.9405 82.2899 66.7753H82.2873ZM69.6466 95.9966H57.984C57.252 95.9957 56.5503 95.7045 56.0328 95.1868C55.5153 94.6692 55.2243 93.9674 55.2236 93.2355V83.6904C55.2236 81.4111 56.1291 79.2251 57.741 77.6133C59.3528 76.0016 61.5389 75.0961 63.8183 75.0961C66.0978 75.0961 68.2838 76.0016 69.8957 77.6133C71.5075 79.2251 72.413 81.4111 72.413 83.6904V93.2372C72.4121 93.9696 72.1205 94.6718 71.6023 95.1895C71.0841 95.7072 70.3817 95.9981 69.6492 95.9983L69.6466 95.9966ZM63.8158 76.8C61.989 76.8027 60.2379 77.5295 58.9463 78.8211C57.6546 80.1127 56.9277 81.8638 56.925 83.6904V93.2372C56.9252 93.5174 57.0366 93.786 57.2346 93.9842C57.4327 94.1824 57.7013 94.294 57.9815 94.2944H69.6535C69.9337 94.294 70.2024 94.1824 70.4006 93.9843C70.5988 93.7861 70.7103 93.5174 70.7107 93.2372V83.6904C70.708 81.863 69.9806 80.1114 68.688 78.8196C67.3954 77.5279 65.6432 76.8015 63.8158 76.8Z" fill="black"/>
</g>
<defs>
<clipPath id="clip0_389_756">
<rect width="40" height="40" fill="white" transform="translate(55.2236 56)"/>
</clipPath>
</defs>
</symbol>
<!---->
<symbol id="spemployeeicon" width="150" height="151" viewBox="0 0 150 151" fill="none" xmlns="http://www.w3.org/2000/svg">
<path d="M0.97368 75.0132C0.973681 55.3836 8.77147 36.5581 22.6516 22.678C36.5318 8.79779 55.3573 0.999999 74.9868 1C94.6164 1 113.442 8.79779 127.322 22.678C141.202 36.5581 149 55.3836 149 75.0132" stroke="black" stroke-linecap="round"/>
<path d="M15.0912 95.5168C13.0432 89.2137 12 82.6274 12 75.9999L75.1579 75.9999L15.0912 95.5168Z" fill="#D7E8FF"/>
<path d="M55.641 136.067C46.1619 132.987 37.5462 127.707 30.4985 120.659C23.4508 113.612 18.1711 104.996 15.0912 95.5168L75.1579 75.9999L55.641 136.067Z" fill="#B6D5FF"/>
<path d="M12 75.9999C12 62.6623 16.2224 49.667 24.0621 38.8766C31.9018 28.0863 42.9562 20.0548 55.641 15.9332C68.3259 11.8117 81.9899 11.8117 94.6748 15.9332C107.36 20.0548 118.414 28.0863 126.254 38.8767C134.093 49.667 138.316 62.6623 138.316 76C138.316 89.3376 134.093 102.333 126.254 113.123C118.414 123.914 107.36 131.945 94.6747 136.067C81.9899 140.188 68.3258 140.188 55.641 136.067L75.1579 75.9999L12 75.9999Z" fill="#2F80ED"/>
<path d="M75.1579 114.487C96.9586 114.487 114.632 96.8139 114.632 75.0132C114.632 53.2125 96.9586 35.5396 75.1579 35.5396C53.3572 35.5396 35.6842 53.2125 35.6842 75.0132C35.6842 96.8139 53.3572 114.487 75.1579 114.487Z" fill="white"/>
<g clip-path="url(#clip0_389_786)">
<path d="M95.2236 88.3097C95.2186 88.4998 95.188 88.6883 95.1329 88.8698C94.8104 89.8396 94.0584 90.4312 93.0637 90.4927C92.9471 90.4999 92.8289 90.4975 92.7123 90.4975C81.1302 90.4975 69.548 90.4962 57.9658 90.4935C57.654 90.4992 57.3427 90.4647 57.0392 90.3908C56.5244 90.2529 56.0684 89.9427 55.7425 89.5086C55.4165 89.0746 55.239 88.5413 55.2377 87.9921C55.2268 86.0993 55.2103 84.2048 55.2416 82.312C55.3089 78.2928 58.588 74.849 62.486 74.7149C63.9674 74.6632 65.4543 74.6591 66.9357 74.7149C69.6106 74.8119 71.6703 76.084 73.1549 78.3615C73.2871 78.5644 73.3897 78.6848 73.6158 78.6363C73.7121 78.6153 73.8068 78.5918 73.9038 78.5773C74.109 78.5434 74.3166 78.5267 74.5244 78.5272C75.3993 78.5401 76.2633 78.5191 77.1382 78.5401C78.0381 78.5736 78.934 78.6798 79.8178 78.8577C79.9119 78.8788 80.0093 78.8788 80.1034 78.8577C80.4243 78.7769 80.6512 78.3558 80.9486 78.1142C82.1413 77.1145 83.6322 76.572 85.1683 76.5786C86.2743 76.5754 87.3806 76.5754 88.4872 76.5786C90.1094 76.5799 91.6767 77.1854 92.9014 78.284C94.126 79.3827 94.9259 80.9007 95.154 82.5593C95.1958 82.8809 95.2188 83.2047 95.2229 83.5292L95.2236 88.3097ZM72.1939 79.1705C70.9856 77.2963 69.3586 76.16 67.2018 76.0185C65.6593 75.9199 64.1044 75.949 62.5572 76.0007C59.2563 76.1115 56.5337 79.0048 56.4899 82.4155C56.4656 84.242 56.4805 86.0694 56.4852 87.8967C56.4852 88.6677 56.9798 89.1898 57.7287 89.202C58.6396 89.2165 59.5513 89.202 60.4622 89.202C60.551 89.1945 60.6393 89.1818 60.7267 89.164V88.7195C60.7267 87.2825 60.7267 85.8452 60.7267 84.4077C60.7222 84.2603 60.7312 84.1129 60.7534 83.9672C60.816 83.6294 61.0413 83.4451 61.3583 83.4492C61.6924 83.454 61.9194 83.648 61.9632 84.0149C61.9762 84.1491 61.9809 84.2841 61.9773 84.419C61.9773 85.856 61.9773 87.2932 61.9773 88.7308V89.1729H69.1387V87.2873C69.1387 86.374 69.1277 85.4608 69.1442 84.5475C69.1459 84.1305 69.1841 83.7144 69.2584 83.3045C69.6145 81.4917 70.6099 80.1412 72.1939 79.1705ZM90.4468 89.1923C91.3655 89.1923 92.2358 89.2205 93.1021 89.1817C93.6413 89.1575 93.9692 88.7251 93.9715 88.1351C93.9762 86.5236 93.9973 84.912 93.9637 83.3021C93.9089 80.635 91.8805 78.2306 89.3167 77.9582C87.7594 77.7966 86.1715 77.8313 84.6033 77.9033C83.2893 77.9639 82.1632 78.5838 81.2303 79.5819C81.3031 79.6498 81.3579 79.7047 81.4174 79.754C82.7219 80.8532 83.5225 82.2595 83.5945 83.9971C83.6665 85.7202 83.6102 87.449 83.6102 89.1737H89.1954V88.4285C89.1954 87.2332 89.1915 86.0386 89.2009 84.8441C89.2009 84.4667 89.4357 84.225 89.7691 84.2024C90.1204 84.179 90.3865 84.4069 90.4366 84.7883C90.4491 84.9226 90.4525 85.0577 90.4468 85.1924V89.1923ZM79.5689 89.2036C80.2529 89.2036 80.8876 89.2084 81.5254 89.2036C82.1147 89.1971 82.3862 88.9223 82.394 88.3145C82.4011 87.0255 82.4206 85.7356 82.3893 84.4473C82.3267 81.9095 80.6066 79.9852 78.1493 79.7767C77.0068 79.6887 75.8597 79.6868 74.7169 79.771C72.4099 79.9238 70.6882 81.5555 70.4534 83.9276C70.3032 85.443 70.3979 86.985 70.4026 88.515C70.4026 88.8334 70.599 89.1284 70.9105 89.1454C71.6664 89.1874 72.4263 89.1591 73.2081 89.1591C73.2081 88.0074 73.2081 86.8808 73.2081 85.7533C73.2081 85.2345 73.4327 84.9532 73.8287 84.9451C74.2247 84.9371 74.4548 85.2167 74.4548 85.7339C74.4548 86.741 74.4548 87.748 74.4548 88.755C74.4548 88.8965 74.4673 89.0371 74.4743 89.1793H78.309V88.7267C78.309 87.8 78.309 86.8732 78.309 85.9465C78.309 85.8261 78.305 85.704 78.3152 85.5844C78.3504 85.186 78.5852 84.9451 78.9327 84.9443C79.2801 84.9435 79.5415 85.1868 79.5501 85.582C79.5697 86.4403 79.5595 87.3002 79.5611 88.1602C79.5666 88.494 79.5666 88.8261 79.5666 89.2044L79.5689 89.2036Z" fill="black"/>
<path d="M64.8611 61.5C65.1012 61.5002 65.3407 61.524 65.5764 61.5711C65.8291 61.622 66.0827 61.673 66.3308 61.7425C69.152 62.5353 70.9527 65.4715 70.4464 68.4425C69.9385 71.4272 67.3004 73.5576 64.3876 73.3345C61.4631 73.1115 59.1404 70.6044 59.07 67.5963C59.0346 66.1238 59.5318 64.6905 60.4645 63.5761C61.3972 62.4617 62.6986 61.7463 64.1145 61.5695C64.1322 61.5677 64.1497 61.5648 64.167 61.5606C64.3254 61.5231 64.4872 61.5028 64.6498 61.5H64.8611ZM64.7828 72.0552C67.237 72.0608 69.267 69.9862 69.2788 67.4597C69.2913 64.9155 67.255 62.8053 64.7938 62.8109C62.3326 62.8166 60.3214 64.9017 60.3182 67.429C60.3151 69.9562 62.3365 72.0495 64.7844 72.0552H64.7828Z" fill="black"/>
<path d="M86.8641 75.5684C84.1102 75.6144 81.8165 73.3054 81.7594 70.4282C81.7022 67.5857 83.9318 65.1692 86.6544 65.1207C89.5147 65.0706 91.8265 67.3255 91.8742 70.2124C91.8912 70.9052 91.7745 71.5947 91.5309 72.2405C91.2873 72.8863 90.9217 73.4756 90.4554 73.9741C89.9892 74.4726 89.4315 74.8702 88.8149 75.144C88.1984 75.4177 87.5352 75.5619 86.8641 75.5684ZM83.0115 70.2924C83.0043 70.8107 83.0964 71.3253 83.2825 71.8066C83.4687 72.288 83.7452 72.7265 84.0962 73.097C84.4472 73.4675 84.8656 73.7626 85.3275 73.9654C85.7894 74.1682 86.2856 74.2746 86.7874 74.2785C87.7869 74.2853 88.749 73.8863 89.4663 73.1674C90.1836 72.4486 90.5987 71.4674 90.6221 70.4354C90.6573 68.2533 89.0029 66.455 86.9252 66.4162C84.77 66.3718 83.0483 68.0763 83.0115 70.2924Z" fill="black"/>
<path d="M80.7835 73.2496C80.7827 74.4521 80.3199 75.6051 79.4969 76.4556C78.6738 77.3061 77.5576 77.7846 76.3932 77.7861C75.228 77.788 74.1095 77.3127 73.2832 76.4642C72.4568 75.6158 71.9899 74.4635 71.985 73.2601C71.9685 70.762 73.9751 68.6841 76.4011 68.6978C77.5655 68.7053 78.6797 69.1881 79.5008 70.0408C80.3218 70.8936 80.7829 72.0471 80.7835 73.2496ZM79.5314 73.2383C79.5299 72.3759 79.197 71.5494 78.6058 70.9403C78.0146 70.3313 77.2134 69.9895 76.3784 69.9901C75.5435 69.9951 74.7443 70.3409 74.1555 70.9522C73.5667 71.5635 73.2359 72.3906 73.2355 73.2529C73.2367 73.6799 73.3192 74.1025 73.4786 74.4965C73.6379 74.8906 73.8708 75.2483 74.1641 75.5494C74.4573 75.8504 74.8051 76.0888 75.1876 76.251C75.5701 76.4132 75.9798 76.496 76.3932 76.4946C76.8066 76.4946 77.2159 76.4102 77.5976 76.2464C77.9793 76.0826 78.3259 75.8425 78.6175 75.5399C78.9091 75.2373 79.14 74.8783 79.2968 74.4833C79.4536 74.0883 79.5333 73.6652 79.5314 73.2383Z" fill="black"/>
</g>
<defs>
<clipPath id="clip0_389_786">
<rect width="40" height="40" fill="white" transform="translate(55.2236 56)"/>
</clipPath>
</defs>
</symbol>
<!---->
<symbol id="sphappycustomericon" width="150" height="151" viewBox="0 0 150 151" fill="none" xmlns="http://www.w3.org/2000/svg">
<path d="M0.97368 75.0132C0.973681 55.3836 8.77147 36.5581 22.6516 22.678C36.5318 8.79779 55.3573 0.999999 74.9868 1C94.6164 1 113.442 8.79779 127.322 22.678C141.202 36.5581 149 55.3836 149 75.0132" stroke="black" stroke-linecap="round"/>
<path d="M75.1579 139.316C58.4074 139.316 42.3429 132.662 30.4985 120.817C18.6541 108.973 12 92.9084 12 76.1579L75.1579 76.1579L75.1579 139.316Z" fill="#B6D5FF"/>
<path d="M12 76.1579C12 63.6664 15.7041 51.4555 22.644 41.0692C29.5839 30.683 39.4478 22.5879 50.9884 17.8076C62.529 13.0273 75.228 11.7766 87.4794 14.2136C99.7308 16.6505 110.984 22.6657 119.817 31.4985C128.65 40.3313 134.665 51.585 137.102 63.8364C139.539 76.0878 138.288 88.7868 133.508 100.327C128.728 111.868 120.633 121.732 110.247 128.672C99.8603 135.612 87.6493 139.316 75.1579 139.316L75.1579 76.1579L12 76.1579Z" fill="#2F80ED"/>
<path d="M75.1579 114.645C96.9586 114.645 114.632 96.9719 114.632 75.1712C114.632 53.3705 96.9586 35.6975 75.1579 35.6975C53.3572 35.6975 35.6842 53.3705 35.6842 75.1712C35.6842 96.9719 53.3572 114.645 75.1579 114.645Z" fill="white"/>
<g clip-path="url(#clip0_389_811)">
<path d="M55.2236 90.8175C55.2232 89.9907 55.2903 89.1652 55.424 88.3493C55.4804 88.0084 55.5448 87.6702 55.6334 87.3383C57.1006 81.865 60.5718 78.3435 65.9637 76.7163L66.3082 76.6111C64.0796 74.4208 63.0168 71.806 63.2995 68.7154C63.5285 66.2616 64.5842 64.1874 66.4263 62.5594C70.0773 59.3284 75.3985 59.3581 78.9959 62.6403C81.0276 64.4941 82.0636 66.8427 82.0779 69.5969C82.0922 72.3511 81.0204 74.6673 79.0173 76.6129C79.3913 76.7226 79.7035 76.8072 80.0113 76.9052C82.9036 77.8247 85.435 79.6355 87.2474 82.0812C89.0597 84.5269 90.0611 87.4838 90.1099 90.5333C90.1215 91.3203 89.7521 91.8951 89.0945 92.0948C88.5005 92.2747 87.8044 92.0543 87.5012 91.502C87.3509 91.1976 87.2685 90.864 87.2596 90.5243C87.0136 85.8569 84.8441 82.4217 80.7198 80.2702C79.1927 79.4732 77.5412 79.1107 75.8172 79.1062C73.705 79.1017 71.5919 79.0793 69.4787 79.1107C66.7246 79.1485 64.0743 80.1741 62.0058 82.0027C59.9372 83.8313 58.5863 86.3427 58.1965 89.0842C58.1327 89.5883 58.0956 90.0954 58.0856 90.6034C58.0569 91.3932 57.6239 91.9904 56.9574 92.1245C56.231 92.2711 55.6262 91.9212 55.297 91.1647C55.2526 91.0545 55.2277 90.9373 55.2236 90.8184V90.8175ZM72.6583 63.0496C71.7979 63.0485 70.9457 63.2182 70.1507 63.5489C69.3557 63.8796 68.6334 64.3649 68.0253 64.9768C67.4171 65.5887 66.9351 66.3153 66.6068 67.1149C66.2785 67.9145 66.1105 68.7714 66.1122 69.6365C66.1165 71.3841 66.8094 73.0588 68.0391 74.2939C69.2689 75.5289 70.9353 76.2237 72.6735 76.2261C76.2771 76.2216 79.2347 73.2434 79.2303 69.6221C79.2246 67.8746 78.5292 66.2009 77.297 64.9685C76.0647 63.7362 74.3963 63.046 72.6583 63.0496ZM93.6455 71.4085C94.5831 71.4085 95.2317 70.8067 95.2236 69.9585C95.2147 69.131 94.5715 68.5409 93.658 68.5391C91.2204 68.5355 88.7826 68.5355 86.3444 68.5391C85.4337 68.5391 84.7904 69.1364 84.7859 69.9666C84.7815 70.7968 85.4319 71.4058 86.3319 71.4058C87.5504 71.4103 88.7697 71.4058 89.9891 71.4058C91.2085 71.4058 92.4252 71.4112 93.6455 71.4085ZM86.3238 63.5983C85.439 63.5983 84.8029 64.1802 84.7859 64.9943C84.7689 65.8083 85.4122 66.4613 86.3068 66.4649C88.7742 66.4727 91.2419 66.4727 93.7099 66.4649C94.5867 66.4649 95.2174 65.8479 95.2227 65.0347C95.2281 64.2036 94.5858 63.6019 93.6813 63.5956C92.4628 63.5956 91.2434 63.5956 90.024 63.5956C88.7912 63.5974 87.5575 63.5947 86.3238 63.5983ZM91.2497 76.3529C92.138 76.3448 92.75 75.7584 92.7509 74.9263C92.7518 74.0943 92.1246 73.4926 91.2515 73.4872C89.6 73.4764 87.9485 73.4764 86.297 73.4872C85.4211 73.4926 84.7868 74.1105 84.7859 74.9263C84.785 75.7422 85.4229 76.3484 86.2943 76.3556C87.1129 76.3628 87.9315 76.3556 88.7501 76.3556C89.583 76.3538 90.4168 76.3592 91.2497 76.3529Z" fill="black"/>
</g>
<defs>
<clipPath id="clip0_389_811">
<rect width="40" height="40" fill="white" transform="translate(55.2236 56.158)"/>
</clipPath>
</defs>
</symbol>
</svg>