<svg width="26" height="27" viewBox="0 0 26 27" fill="none" xmlns="http://www.w3.org/2000/svg">
<path d="M13.9123 24.2973C12.988 24.3715 12.0579 24.3309 11.1436 24.1765L11.1295 24.1741C6.36911 23.3497 3.07038 19.9768 2.32961 15.3644C1.82103 12.1966 2.48894 9.27379 4.46352 6.7108C5.981 4.74042 8.01386 3.5513 10.4193 2.99457C11.0532 2.84908 11.7075 2.78846 12.3521 2.68759C12.3642 2.68759 12.408 2.68323 12.4735 2.67983C13.2507 2.64193 14.0298 2.68566 14.7979 2.81029C14.9494 2.83502 15.1005 2.86121 15.2511 2.89127C16.2065 3.08235 17.1105 3.42182 17.9761 3.86652C18.1573 3.95964 18.2962 4.109 18.219 4.3088C18.154 4.44733 18.0382 4.55566 17.8955 4.61142C17.8012 4.64633 17.6502 4.56729 17.5394 4.50958C16.5932 4.0188 15.5964 3.67496 14.5423 3.52269C11.9795 3.15267 9.60956 3.6997 7.45768 5.12305C5.0435 6.71807 3.52067 8.93238 3.02715 11.8062C2.69004 13.7708 2.97323 15.683 3.73538 17.5011C5.1494 20.874 7.74039 22.8099 11.3199 23.402C13.9915 23.8433 16.4985 23.3206 18.7562 21.8017C20.9907 20.2983 22.26 18.1529 22.8137 15.5457C23.3072 13.2209 23.008 11.0046 21.9394 8.88777C21.8072 8.62637 21.8519 8.41008 22.0511 8.29757C22.2502 8.18506 22.4883 8.26363 22.6126 8.50659C23.1432 9.52521 23.5066 10.6222 23.689 11.7558C23.7439 12.0953 23.7862 12.441 23.8348 12.7834V13.9716C23.8328 14.1223 23.8187 14.2727 23.7925 14.4211C23.7925 14.4211 23.6759 15.4711 23.5409 15.973C22.3401 20.4491 19.4742 23.1862 14.9431 24.1843C14.7643 24.2226 14.3514 24.2638 13.9123 24.2973Z" fill="#2F80ED"/>
<path d="M5.62537 13.5777C5.74389 10.7087 6.83343 8.44779 9.35982 7.0933C11.6375 5.8717 13.9987 5.77907 16.3517 6.96139C16.701 7.13695 16.8093 7.34015 16.6917 7.57341C16.5742 7.80667 16.3517 7.82753 16.0029 7.65052C13.8171 6.53803 11.6652 6.66994 9.58521 7.89979C7.95163 8.86582 6.87618 10.2916 6.50944 12.1718C5.76284 16.0073 8.3344 19.4141 11.8833 20.0106C16.0535 20.7109 19.1482 17.5451 19.5256 14.1737C19.6713 12.8575 19.4416 11.6184 18.8154 10.4521C18.763 10.3551 18.7066 10.246 18.6993 10.1398C18.6867 9.95067 18.7916 9.81634 18.9782 9.76542C19.19 9.70674 19.3541 9.79403 19.4348 9.98462C19.6611 10.5181 19.9273 11.0428 20.0794 11.5981C21.2388 15.8337 18.4278 20.1333 14.0828 20.7914C11.0046 21.2574 6.66585 19.6973 5.76624 14.8822C5.68415 14.4302 5.66569 13.969 5.62537 13.5777Z" fill="#2F80ED"/>
<path d="M21.1722 5.30683C21.7275 5.35047 22.2501 5.3917 22.7752 5.43195C22.9622 5.44601 23.1303 5.49257 23.2022 5.68994C23.2741 5.88732 23.1837 6.04299 23.0419 6.1846C22.1539 7.06754 21.2689 7.95356 20.3868 8.84265C20.3185 8.91619 20.2332 8.9719 20.1384 9.00487C20.0435 9.03784 19.942 9.04708 19.8427 9.03178C19.3449 8.98328 18.8445 8.95273 18.3466 8.90521C18.2798 8.89665 18.212 8.90474 18.1491 8.92878C18.0862 8.95281 18.0302 8.99203 17.9862 9.04293C16.4642 10.5718 14.9399 12.0982 13.4134 13.6219C13.3619 13.6733 13.3133 13.7281 13.2584 13.7751C13.0762 13.9294 12.8698 13.9289 12.7129 13.7751C12.556 13.6214 12.5541 13.4124 12.7071 13.2305C12.7556 13.1753 12.8081 13.1268 12.8596 13.0753C14.379 11.5558 15.8994 10.0363 17.4208 8.51676C17.4799 8.46416 17.525 8.3977 17.552 8.32336C17.5789 8.24903 17.5869 8.16916 17.5753 8.09096C17.5267 7.58467 17.4781 7.0774 17.4572 6.56917C17.4538 6.41201 17.5081 6.25903 17.6098 6.13901C18.5074 5.22002 19.4211 4.31655 20.3275 3.40628C20.4592 3.27389 20.6039 3.20987 20.7856 3.27292C20.9673 3.33596 21.0319 3.48921 21.046 3.67107C21.0853 4.21325 21.1285 4.75107 21.1722 5.30683ZM18.3476 8.13316C18.8144 8.16759 19.2477 8.20978 19.6824 8.2253C19.8047 8.2263 19.9231 8.18247 20.0152 8.10212C20.6175 7.51678 21.2077 6.91882 21.8003 6.32427C21.8489 6.27577 21.8853 6.22291 21.946 6.1492C21.6327 6.12689 21.3602 6.10361 21.0872 6.08906C20.5301 6.05948 20.4198 5.94843 20.3897 5.38782C20.3746 5.11091 20.3494 4.83496 20.3246 4.50471C19.6227 5.20887 18.9611 5.87035 18.3044 6.53571C18.2633 6.58309 18.2416 6.64423 18.2437 6.7069C18.2738 7.17294 18.3107 7.64092 18.3476 8.13316Z" fill="#2F80ED"/>
<path d="M9.11451 13.5088C9.11451 11.4865 10.5164 9.89297 12.525 9.67765C12.9675 9.62915 13.4231 9.69608 13.8715 9.72615C13.991 9.74161 14.1064 9.7798 14.2115 9.83866C14.4315 9.94729 14.5151 10.1398 14.4437 10.3348C14.3679 10.5409 14.1755 10.6301 13.9273 10.5545C13.3161 10.3579 12.659 10.3548 12.046 10.5457C11.3216 10.7733 10.7059 11.2583 10.3157 11.9089C9.92557 12.5594 9.78801 13.3302 9.92911 14.0752C10.2259 15.6567 11.568 16.6916 13.1749 16.5781C15.2126 16.4326 16.4945 14.6009 15.9383 12.6209C15.8825 12.4211 15.863 12.2377 16.0467 12.0937C16.084 12.0623 16.1275 12.039 16.1744 12.0252C16.2213 12.0114 16.2705 12.0074 16.319 12.0136C16.3674 12.0197 16.4141 12.0359 16.456 12.0609C16.4979 12.086 16.5342 12.1194 16.5625 12.1592C16.6452 12.2682 16.7047 12.393 16.7374 12.5258C17.3421 15.2028 15.3666 17.3594 13.0306 17.3826C10.8171 17.4069 9.11451 15.7144 9.11451 13.5088Z" fill="#2F80ED"/>
</svg>
