<svg width="26" height="27" viewBox="0 0 26 27" fill="none" xmlns="http://www.w3.org/2000/svg">
<path d="M1.61671 13.164C3.54537 10.6095 5.9196 8.5829 8.9875 7.41036C11.9923 6.2613 14.9659 6.42321 17.8714 7.7606C20.5278 8.98353 22.6329 10.8512 24.3776 13.1346L24.3806 13.138C24.4583 13.2404 24.5002 13.3644 24.5002 13.4917C24.5002 13.6191 24.4583 13.743 24.3806 13.8454C22.3322 16.5432 19.8106 18.6573 16.5006 19.7702C13.6538 20.7275 10.8615 20.4873 8.1575 19.2492C5.48304 18.0263 3.36193 16.1469 1.61421 13.8454L1.6112 13.842C1.53798 13.7431 1.49903 13.624 1.50002 13.5021C1.50101 13.3801 1.5419 13.2617 1.61671 13.164ZM12.9265 19.3701C14.3611 19.3686 15.7796 19.0752 17.0916 18.5086C19.6081 17.4349 21.6024 15.7243 23.2985 13.6497C23.3988 13.5245 23.3772 13.4462 23.2875 13.3357C21.85 11.5678 20.18 10.0631 18.1351 8.98206C14.9444 7.29345 11.7005 7.15599 8.41562 8.71155C6.12459 9.79701 4.28365 11.4162 2.70835 13.3459C2.59307 13.4873 2.64419 13.568 2.73491 13.6796C3.99094 15.2244 5.43744 16.5657 7.15859 17.6091C8.9434 18.6926 10.862 19.3554 12.9265 19.3701Z" fill="#2F80ED"/>
<path d="M13.4719 1.34115C13.5007 1.43836 13.5136 1.5394 13.51 1.64053V1.65129C13.4954 2.6399 13.5055 3.629 13.5035 4.61761C13.5035 4.93606 13.3361 5.14445 13.0654 5.17918C12.9968 5.18853 12.927 5.18358 12.8605 5.16465C12.794 5.14573 12.7323 5.11327 12.6796 5.06941C12.6269 5.02554 12.5843 4.97128 12.5547 4.91018C12.525 4.84909 12.509 4.78255 12.5076 4.71496C12.4985 3.62509 12.5026 2.53522 12.5076 1.44535C12.5068 1.38088 12.5217 1.31716 12.5512 1.25946C12.7451 0.874976 13.3411 0.930742 13.4719 1.34115Z" fill="#2F80ED"/>
<path d="M12.5346 25.6588C12.5058 25.5616 12.493 25.4606 12.4966 25.3595C12.5111 24.3669 12.5011 23.3744 12.5026 22.3819C12.5026 22.0727 12.6564 21.8712 12.9161 21.8242C12.9862 21.8111 13.0583 21.8131 13.1276 21.83C13.1968 21.847 13.2614 21.8785 13.3169 21.9223C13.3723 21.9661 13.4173 22.0213 13.4487 22.0838C13.4801 22.1464 13.497 22.2149 13.4985 22.2845C13.5085 23.3744 13.504 24.4643 13.5015 25.5546C13.5017 25.619 13.4868 25.6826 13.4579 25.7405C13.2614 26.125 12.6655 26.0717 12.5346 25.6588Z" fill="#2F80ED"/>
<path d="M5.87206 19.8195C6.10312 20.0064 6.15474 20.3419 5.96228 20.5665C5.95476 20.5753 5.94674 20.5836 5.93872 20.5919C5.25608 21.2715 4.56724 21.945 3.87223 22.6122C3.64017 22.8357 3.34146 22.8338 3.13746 22.6293C2.93347 22.4248 2.93698 22.1489 3.15851 21.9303C3.85519 21.2415 4.55688 20.5567 5.26359 19.8758C5.41846 19.7256 5.62346 19.6586 5.81091 19.773C5.83226 19.7873 5.85268 19.8028 5.87206 19.8195Z" fill="#2F80ED"/>
<path d="M22.8771 21.9626C22.9496 22.0539 22.9882 22.1665 22.9868 22.2819C22.9853 22.3974 22.9438 22.509 22.8691 22.5985C22.8396 22.6359 22.8026 22.6671 22.7603 22.69C22.6275 22.7424 22.427 22.7913 22.2687 22.7067C22.2253 22.6838 22.185 22.6557 22.1489 22.623C21.4472 21.9382 20.74 21.2602 20.0473 20.5685C19.7466 20.2691 19.8889 19.799 20.2949 19.7457C20.3757 19.7384 20.4572 19.7469 20.5346 19.7705C20.612 19.7942 20.6839 19.8327 20.746 19.8837C21.4602 20.5548 22.1579 21.2426 22.8511 21.9328C22.8591 21.9445 22.8676 21.9543 22.8771 21.9626Z" fill="#2F80ED"/>
<path d="M3.14445 4.89357C3.23127 4.80879 3.34574 4.75632 3.46803 4.74524C3.59032 4.73416 3.71273 4.76518 3.81406 4.83292C3.83184 4.8455 3.8486 4.8594 3.86418 4.87449C4.56086 5.54074 5.25119 6.2127 5.93518 6.89036C6.17977 7.13201 6.18278 7.4216 5.96425 7.62412C5.75324 7.81979 5.46905 7.81245 5.22948 7.58107C4.53614 6.91189 3.84664 6.23928 3.16098 5.56325C3.0006 5.40573 2.92191 5.20273 3.04471 5.0095C3.07299 4.96704 3.10648 4.92811 3.14445 4.89357Z" fill="#2F80ED"/>
<path d="M20.6753 7.64756C20.5708 7.71701 20.4437 7.74628 20.3184 7.72975C20.1931 7.71323 20.0785 7.65207 19.9966 7.55805C19.9375 7.48806 19.9008 7.4026 19.8912 7.31238C19.8816 7.22215 19.8994 7.13116 19.9425 7.05078C19.9652 7.00718 19.9946 6.96726 20.0297 6.9324C20.7419 6.23582 21.4496 5.53484 22.1754 4.85196C22.2721 4.76097 22.4681 4.71303 22.6054 4.73162C22.9919 4.78494 23.1402 5.22079 22.8806 5.51919C22.7082 5.71485 22.5102 5.8934 22.3218 6.07733C21.8205 6.5665 21.3238 7.05909 20.8181 7.54044C20.7741 7.58043 20.7262 7.61629 20.6753 7.64756Z" fill="#2F80ED"/>
<path d="M16.9343 15.6549C16.9478 15.6323 16.9608 15.6094 16.9734 15.5864C16.9859 15.5634 17.0009 15.5375 17.0145 15.5115C17.036 15.4714 17.0566 15.4313 17.0766 15.3907L17.1082 15.3247C17.1242 15.2899 17.1403 15.2552 17.1558 15.22C17.1643 15.2004 17.1734 15.1808 17.1814 15.1608C17.2019 15.1119 17.2215 15.063 17.2405 15.014L17.2601 14.9597C17.2746 14.9206 17.2881 14.8815 17.3012 14.8419C17.3072 14.8242 17.3132 14.8066 17.3187 14.7885C17.3348 14.7396 17.3498 14.6878 17.3638 14.6369C17.3698 14.6159 17.3754 14.5943 17.3809 14.5733C17.3909 14.5347 17.4004 14.496 17.4094 14.4569C17.4149 14.4329 17.4205 14.408 17.4255 14.385C17.435 14.34 17.4435 14.295 17.4515 14.2495C17.456 14.225 17.4601 14.2006 17.4641 14.1756C17.4706 14.136 17.4761 14.0968 17.4816 14.0572C17.4856 14.0264 17.4891 13.9961 17.4921 13.9653C17.4966 13.9256 17.5007 13.886 17.5037 13.8459C17.5037 13.8229 17.5072 13.7994 17.5087 13.776C17.5122 13.7212 17.5152 13.6659 17.5167 13.6101V13.5759C17.5167 13.5196 17.5167 13.4634 17.5167 13.4071C17.5167 13.3993 17.5167 13.392 17.5167 13.3841C17.511 13.186 17.4921 12.9884 17.4601 12.7927C17.4555 12.7653 17.4495 12.7399 17.443 12.7145C17.3023 11.9707 16.9687 11.2745 16.4742 10.6922C15.9796 10.1099 15.3405 9.66097 14.6177 9.3881C14.419 9.30624 14.212 9.24492 14.0002 9.20515C13.716 9.1426 13.4263 9.10705 13.1351 9.099H12.8745C12.5833 9.10705 12.2936 9.1426 12.0094 9.20515C11.7976 9.24485 11.5906 9.30617 11.3919 9.3881C10.6692 9.66097 10.03 10.1099 9.53546 10.6922C9.04088 11.2745 8.70733 11.9707 8.5666 12.7145C8.56008 12.7399 8.55407 12.7634 8.54956 12.7927C8.51724 12.9884 8.49832 13.186 8.49292 13.3841C8.49292 13.392 8.49292 13.3993 8.49292 13.4071C8.49292 13.4634 8.49292 13.5196 8.49292 13.5754V13.6101C8.49292 13.6659 8.49543 13.7212 8.50044 13.776C8.50044 13.7994 8.50395 13.8249 8.50595 13.8459C8.50896 13.886 8.51297 13.9256 8.51698 13.9653C8.52049 13.9961 8.52399 14.0269 8.528 14.0577C8.53352 14.0968 8.53903 14.1365 8.54505 14.1756C8.54906 14.2001 8.55357 14.2245 8.55758 14.2495C8.5661 14.295 8.57461 14.34 8.58414 14.3845C8.58915 14.4089 8.59467 14.4334 8.60018 14.4574C8.6092 14.4962 8.61872 14.5348 8.62875 14.5733C8.63426 14.5943 8.63978 14.6159 8.64579 14.6369C8.65982 14.6858 8.67486 14.7386 8.6909 14.7885C8.69641 14.8066 8.70243 14.8242 8.70844 14.8419C8.72147 14.8815 8.735 14.9206 8.74904 14.9597C8.75605 14.9778 8.76257 14.9959 8.76909 15.014C8.78813 15.063 8.80768 15.1119 8.82823 15.1608C8.83625 15.1808 8.84527 15.2004 8.85379 15.22C8.86933 15.2552 8.88487 15.2899 8.90141 15.3247L8.93298 15.3907C8.95303 15.4313 8.97358 15.4714 8.99513 15.5115C9.00816 15.5365 9.0222 15.5604 9.03623 15.5864C9.05026 15.6123 9.06179 15.6323 9.07482 15.6549C9.10339 15.7038 9.13296 15.7527 9.16304 15.8016C9.17056 15.8138 9.17807 15.8261 9.18609 15.8383C9.69439 16.6271 10.4442 17.2398 11.3293 17.5895L11.3568 17.6003C11.3964 17.6154 11.436 17.6306 11.4766 17.6448C11.5172 17.659 11.5628 17.6746 11.6064 17.6888L11.6656 17.7074C12.08 17.8347 12.5113 17.902 12.9457 17.907H13.066C13.5004 17.9019 13.9316 17.8347 14.346 17.7074L14.4047 17.6888C14.4483 17.6751 14.4919 17.6604 14.535 17.6448C14.5781 17.6291 14.6152 17.6154 14.6548 17.6003L14.6819 17.5895C15.567 17.2397 16.3169 16.6271 16.8255 15.8383L16.8486 15.8016C16.8766 15.7502 16.9062 15.7038 16.9343 15.6549ZM12.9622 10.0759H13.0449C14.736 10.0994 16.2441 11.3257 16.4822 13.0398C16.5525 13.5809 16.4934 14.1305 16.3098 14.6457C16.2922 14.6946 16.2727 14.7435 16.2526 14.7924L16.2496 14.7988C16.2321 14.8409 16.2136 14.882 16.1945 14.9231C16.179 14.9558 16.1629 14.9881 16.1444 15.0209C16.1389 15.0312 16.1339 15.0419 16.1283 15.0522C15.9873 15.3208 15.8107 15.5701 15.6031 15.7938L15.6001 15.7972C15.57 15.8295 15.5394 15.8608 15.5078 15.8921L15.4873 15.9126C15.4617 15.9376 15.4372 15.9616 15.4101 15.9855L15.3685 16.0237C15.349 16.0413 15.3289 16.0579 15.3094 16.0726C15.2898 16.0873 15.2668 16.1093 15.2447 16.1269L15.2056 16.1582C15.1765 16.1807 15.1475 16.2037 15.1174 16.2257L15.0979 16.2399C14.7906 16.4635 14.4484 16.6373 14.0844 16.7545C14.0614 16.7618 14.0388 16.7697 14.0157 16.7765L13.9616 16.7917L13.8614 16.8191L13.7952 16.8342C13.7666 16.8411 13.7376 16.8479 13.7085 16.8538C13.6794 16.8597 13.6423 16.8665 13.6083 16.8724C13.5912 16.8753 13.5742 16.8788 13.5581 16.8812C13.521 16.8876 13.483 16.8925 13.4454 16.8973L13.4038 16.9027C13.3672 16.9071 13.3306 16.9106 13.294 16.9135L13.2439 16.9174C13.2113 16.9198 13.1782 16.9213 13.1436 16.9228L13.08 16.9252H12.9171L12.8539 16.9228C12.8214 16.9228 12.7883 16.9198 12.7537 16.9174L12.7036 16.9135C12.667 16.9106 12.6304 16.9071 12.5938 16.9027L12.5522 16.8973C12.5141 16.8925 12.4765 16.8876 12.4389 16.8812L12.3888 16.8724C12.3557 16.8665 12.3222 16.8607 12.2886 16.8538C12.255 16.847 12.2304 16.8411 12.2019 16.8342L12.1357 16.8191L12.0355 16.7917L11.9813 16.7765C11.9578 16.7697 11.9352 16.7614 11.9122 16.754C11.5919 16.6508 11.2881 16.5039 11.01 16.3177C10.9729 16.2922 10.9358 16.2663 10.8997 16.2399C10.8932 16.235 10.8862 16.2306 10.8802 16.2257C10.8501 16.2037 10.821 16.1812 10.792 16.1582L10.7529 16.1269C10.7308 16.1093 10.7098 16.0912 10.6882 16.0726C10.6667 16.054 10.6486 16.0393 10.6291 16.0237C10.6095 16.008 10.6015 15.9982 10.5875 15.9855C10.5614 15.9616 10.5374 15.9366 10.5103 15.9126L10.4897 15.8921C10.4582 15.8608 10.4271 15.8295 10.397 15.7972L10.3945 15.7938C10.1868 15.57 10.0101 15.3207 9.86874 15.0522L9.8532 15.0209C9.83666 14.9886 9.82062 14.9563 9.80308 14.9231C9.78404 14.882 9.76549 14.8409 9.74795 14.7988L9.74494 14.7924C9.72439 14.7435 9.70534 14.6946 9.6873 14.6457C9.50381 14.1305 9.44497 13.5808 9.51539 13.0398C9.76349 11.3247 11.2716 10.0989 12.9622 10.0759Z" fill="#2F80ED"/>
<path d="M15.0081 13.5044C15.0072 13.8912 14.8889 14.2691 14.668 14.5903C14.4472 14.9115 14.1338 15.1616 13.7673 15.309C13.4009 15.4564 12.998 15.4946 12.6094 15.4186C12.2208 15.3426 11.864 15.1559 11.584 14.882C11.3041 14.6082 11.1136 14.2596 11.0366 13.8801C10.9596 13.5007 10.9996 13.1075 11.1515 12.7502C11.3033 12.3929 11.5603 12.0876 11.8899 11.8728C12.2195 11.658 12.6069 11.5433 13.0032 11.5433C13.5353 11.5446 14.0452 11.7518 14.421 12.1194C14.7968 12.487 15.008 12.9851 15.0081 13.5044ZM14.0057 13.5044C14.007 13.3109 13.9494 13.1213 13.8402 12.9597C13.7311 12.7981 13.5753 12.6717 13.3925 12.5965C13.2098 12.5213 13.0083 12.5008 12.8136 12.5374C12.6188 12.574 12.4396 12.6662 12.2985 12.8023C12.1575 12.9384 12.061 13.1122 12.0212 13.3019C11.9814 13.4915 12.0002 13.6884 12.0751 13.8676C12.15 14.0468 12.2777 14.2003 12.442 14.3087C12.6063 14.4171 12.7999 14.4754 12.9982 14.4764C13.2637 14.4777 13.5188 14.3762 13.7076 14.1942C13.8965 14.0121 14.0037 13.7635 14.0057 13.5044Z" fill="#2F80ED"/>
</svg>
