<svg width="26" height="27" viewBox="0 0 26 27" fill="none" xmlns="http://www.w3.org/2000/svg">
<path d="M20.0236 17.5742C20.0501 17.5376 20.0805 17.4965 20.1127 17.4516L20.0236 17.5742ZM23.3202 9.6422C23.2083 9.5279 21.5515 7.56237 21.5515 7.56237C21.0077 6.92738 20.3275 6.51122 19.5083 6.38324C18.8882 6.28555 18.2511 6.27969 17.6216 6.27773C14.2084 6.26829 10.7951 6.26829 7.38194 6.27773C6.17926 6.28115 5.14819 6.70562 4.35177 7.67471C3.75968 8.39518 3.14483 9.09562 2.53946 9.80437C2.29532 10.0906 2.11565 10.412 2.04502 10.7891C1.89711 11.5745 2.10617 12.2676 2.56411 12.8958C5.47166 16.8845 8.37667 20.8735 11.2792 24.8629C11.5574 25.2458 11.8646 25.579 12.2543 25.8007C12.4814 25.9303 12.7368 25.9983 12.9964 25.9983C13.2561 25.9983 13.5114 25.9303 13.7386 25.8007C14.1287 25.5794 14.4364 25.2458 14.7142 24.8619C15.7263 23.4688 17.5495 20.9714 18.4056 19.7913L18.4531 19.7239C18.4531 19.7239 20.9129 16.3535 21.1647 16.0053C21.9231 14.9639 22.6764 13.9186 23.4401 12.8831C24.0507 12.062 24.3565 10.707 23.3202 9.6422ZM20.519 7.5907C20.7064 7.76654 20.8905 7.94662 21.0713 8.13093L22.3986 9.6759L22.4076 9.68665L22.5536 9.85614L22.5968 9.90499C22.7219 10.0515 22.8466 10.1956 22.9637 10.3446C23.0808 10.4936 23.1533 10.666 23.2605 10.8511H18.3966C19.0252 9.69691 19.6406 8.56614 20.2654 7.41827C20.363 7.48568 20.4512 7.52622 20.519 7.59021V7.5907ZM13.968 6.99723C15.8325 7.05926 17.7007 6.91223 19.6278 7.09492C18.9556 8.33021 18.3317 9.47515 17.6941 10.6455L13.9566 7.05682L13.968 6.99723ZM12.9986 7.13888L16.8579 10.8448H9.14117L12.9986 7.13888ZM7.07286 7.02214C8.72115 7.01237 10.3694 7.01676 12.0822 7.01676L8.3054 10.6455L6.39543 7.13839C6.63673 7.09492 6.85479 7.02263 7.07286 7.02165V7.02214ZM3.03011 10.3514C3.71085 9.54027 4.39887 8.7353 5.09415 7.93652C5.26528 7.74114 5.48667 7.59216 5.71564 7.39531C6.35182 8.56223 6.96667 9.69104 7.6019 10.8575H2.7343C2.84238 10.6714 2.91396 10.4902 3.03058 10.3509L3.03011 10.3514ZM11.9234 24.5166C11.7911 24.3358 11.6579 24.1561 11.5261 23.9754C8.73522 20.1433 5.9454 16.311 3.15668 12.4786C2.97701 12.2315 2.85755 11.9379 2.67931 11.6097H7.95745C9.29555 15.9058 10.6324 20.2008 11.968 24.4946L11.9234 24.5166ZM13.0389 25.2761L12.9611 25.2839C11.544 20.7322 10.1253 16.1733 8.70503 11.6072H17.2921L13.0389 25.2761ZM22.8518 12.4615C21.9606 13.7052 21.0547 14.9375 20.154 16.1738C19.9857 16.4053 19.816 16.6359 19.6477 16.8674L17.8785 19.2974L17.86 19.3224C16.7768 20.8024 14.115 24.456 14.0714 24.5171C14.0586 24.4247 16.6843 15.9638 17.9719 11.8075C18.0269 11.6312 18.1094 11.5955 18.2715 11.596C19.8515 11.6019 21.4315 11.5994 23.012 11.5999C23.086 11.5999 23.1595 11.6092 23.3126 11.619C23.1434 11.934 23.0249 12.2198 22.8513 12.462L22.8518 12.4615ZM12.9986 3.14919C12.9106 3.14919 12.8261 3.11317 12.7639 3.04905C12.7017 2.98493 12.6667 2.89796 12.6667 2.80728V1.34192C12.6667 1.25124 12.7017 1.16427 12.7639 1.10015C12.8261 1.03602 12.9106 1 12.9986 1C13.0866 1 13.171 1.03602 13.2332 1.10015C13.2954 1.16427 13.3304 1.25124 13.3304 1.34192V2.80728C13.3304 2.89796 13.2954 2.98493 13.2332 3.04905C13.171 3.11317 13.0866 3.14919 12.9986 3.14919ZM10.9127 3.72508C10.8365 3.7704 10.746 3.78268 10.661 3.75923C10.576 3.73578 10.5035 3.67852 10.4595 3.60004L9.74843 2.33006C9.72658 2.29116 9.71239 2.24821 9.70666 2.20366C9.70093 2.1591 9.70379 2.11382 9.71506 2.07041C9.72633 2.02699 9.7458 1.98629 9.77235 1.95064C9.7989 1.91498 9.83201 1.88507 9.86979 1.86261C9.94604 1.81733 10.0366 1.80512 10.1216 1.82866C10.2066 1.85221 10.279 1.90957 10.323 1.98814L11.0341 3.25812C11.0781 3.33663 11.09 3.42992 11.0672 3.51749C11.0445 3.60505 10.9889 3.67972 10.9127 3.72508ZM9.38578 5.29839C9.34176 5.37687 9.26929 5.43413 9.1843 5.45758C9.09932 5.48103 9.00878 5.46875 8.93258 5.42343L7.70003 4.69075C7.62378 4.64547 7.56811 4.57084 7.54526 4.48327C7.52241 4.3957 7.53426 4.30236 7.5782 4.22379C7.6 4.18486 7.62903 4.15074 7.66364 4.12339C7.69824 4.09603 7.73774 4.07597 7.77988 4.06436C7.82202 4.05274 7.86596 4.0498 7.9092 4.05571C7.95244 4.06161 7.99412 4.07623 8.03187 4.09875L9.26442 4.83143C9.34059 4.87678 9.39617 4.95145 9.41892 5.03902C9.44168 5.12658 9.42976 5.21988 9.38578 5.29839ZM16.6113 5.29839C16.5674 5.21988 16.5554 5.12658 16.5782 5.03902C16.601 4.95145 16.6565 4.87678 16.7327 4.83143L17.9652 4.09875C18.003 4.07623 18.0447 4.06161 18.0879 4.05571C18.1312 4.0498 18.1751 4.05274 18.2172 4.06436C18.2594 4.07597 18.2989 4.09603 18.3335 4.12339C18.3681 4.15074 18.3971 4.18486 18.4189 4.22379C18.4629 4.30236 18.4747 4.3957 18.4519 4.48327C18.429 4.57084 18.3733 4.64547 18.2971 4.69075L17.0645 5.42343C16.9883 5.46875 16.8978 5.48103 16.8128 5.45758C16.7278 5.43413 16.6554 5.37687 16.6113 5.29839ZM15.0844 3.72508C15.0082 3.67972 14.9527 3.60505 14.9299 3.51749C14.9071 3.42992 14.9191 3.33663 14.963 3.25812L15.6741 1.98814C15.7181 1.90957 15.7905 1.85221 15.8755 1.82866C15.9605 1.80512 16.0511 1.81733 16.1273 1.86261C16.1651 1.88507 16.1982 1.91498 16.2248 1.95064C16.2513 1.98629 16.2708 2.02699 16.2821 2.07041C16.2933 2.11382 16.2962 2.1591 16.2905 2.20366C16.2847 2.24821 16.2705 2.29116 16.2487 2.33006L15.5376 3.60004C15.4936 3.67852 15.4211 3.73578 15.3361 3.75923C15.2511 3.78268 15.1606 3.7704 15.0844 3.72508Z" fill="#2F80ED"/>
</svg>
