<svg width="320" height="336" viewBox="0 0 320 336" fill="none" xmlns="http://www.w3.org/2000/svg">
<path d="M78.0182 284.381C78.0182 284.381 84.7838 286.159 85.077 286.137C85.3702 286.114 90.0948 282.457 90.0948 282.457L90.1963 281.422L87.0164 276.673L78.2325 280.555L78.131 281.591L78.0182 284.381Z" fill="#ABABAB"/>
<path d="M78.1085 283.346C78.1085 283.346 84.874 285.124 85.1784 285.102C85.4829 285.079 90.1962 281.422 90.1962 281.422C90.1962 281.422 91.3239 278.766 87.1179 275.593C86.0948 275.614 85.0922 275.883 84.1965 276.377C83.3007 276.871 82.5387 277.575 81.9761 278.428L78.2325 280.555L78.1085 283.346Z" fill="url(#paint0_linear_269_224)"/>
<path style="mix-blend-mode:multiply" d="M272.934 215.59C265.323 196.741 201.704 204.731 130.857 233.426C60.0105 262.122 8.72753 300.676 16.3388 319.514C23.9501 338.352 87.5576 330.373 158.416 301.666C229.274 272.959 280.545 234.428 272.934 215.59Z" fill="url(#paint1_radial_269_224)"/>
<path d="M83.4266 313.452C83.4266 315.084 79.8746 320.047 78.9838 321.532C74.9132 328.34 72.5527 330.013 57.4881 330.013C50.7641 330.013 56.198 325.196 50.9703 323.495C47.6844 322.427 38.5505 311.827 36.2161 310.265C32.1312 307.532 17 317.118 17 313.452C17 304.36 31.8616 297 50.2076 297C68.5536 297 83.4266 304.36 83.4266 313.452Z" fill="#1A1A1A"/>
<path d="M311.836 87.1453L286.849 77.5801L274.829 60.5314L299.207 68.9938L311.836 87.1453Z" fill="url(#paint2_linear_269_224)"/>
<path d="M238.08 185.184L217.051 169.857L187.384 129.559L206.801 142.41L238.08 185.184Z" fill="url(#paint3_linear_269_224)"/>
<path d="M149.688 248.787L129.606 232.92L99.95 192.622L118.409 206.002L149.688 248.787Z" fill="url(#paint4_linear_269_224)"/>
<path d="M235.994 139.225L215.765 126.149L255.468 49.6832L278.73 57.4592L235.994 139.225Z" fill="url(#paint5_linear_269_224)"/>
<path style="mix-blend-mode:screen" d="M235.994 139.225L215.765 126.149L255.468 49.6832L278.73 57.4592L235.994 139.225Z" fill="url(#paint6_linear_269_224)"/>
<path style="mix-blend-mode:screen" d="M235.994 139.225L215.765 126.149L255.468 49.6832L278.73 57.4592L235.994 139.225Z" fill="url(#paint7_linear_269_224)"/>
<path d="M255.772 56.4464L233.874 48.6816L293.941 0L320 4.25373L255.772 56.4464Z" fill="url(#paint8_linear_269_224)"/>
<path style="mix-blend-mode:screen" d="M255.772 56.4464L233.874 48.6816L293.941 0L320 4.25373L255.772 56.4464Z" fill="url(#paint9_linear_269_224)"/>
<path style="mix-blend-mode:screen" opacity="0.7" d="M255.772 56.4464L233.874 48.6816L293.941 0L320 4.25373L255.772 56.4464Z" fill="url(#paint10_linear_269_224)"/>
<path d="M147.467 202.187L132.921 184.812L185.997 84.7933L204.568 95.2026L147.467 202.187Z" fill="url(#paint11_linear_269_224)"/>
<path style="mix-blend-mode:screen" d="M147.467 202.187L132.921 184.812L185.997 84.7933L204.568 95.2026L147.467 202.187Z" fill="url(#paint12_linear_269_224)"/>
<path d="M31.9222 321.326L25.0326 296.006L101.506 141.195L114.135 155.824L31.9222 321.326Z" fill="url(#paint13_linear_269_224)"/>
<path style="mix-blend-mode:screen" d="M31.9222 321.326L25.0326 296.006L101.506 141.195L114.135 155.824L31.9222 321.326Z" fill="url(#paint14_linear_269_224)"/>
<path d="M320 4.25378L311.836 87.1453L299.207 68.9938L238.08 185.184L206.801 142.41L149.62 248.832L117.518 205.26L55.207 329.721L31.9222 321.326L114.135 155.824L147.467 202.187L204.568 95.2027L235.994 139.225L278.73 57.4592L255.772 56.4464L320 4.25378Z" fill="url(#paint15_linear_269_224)"/>
<path style="mix-blend-mode:screen" opacity="0.3" d="M320 4.25378L311.836 87.1453L299.207 68.9938L238.08 185.184L206.801 142.41L149.62 248.832L117.518 205.26L55.207 329.721L31.9222 321.326L114.135 155.824L147.467 202.187L204.568 95.2027L235.994 139.225L278.73 57.4592L255.772 56.4464L320 4.25378Z" fill="url(#paint16_linear_269_224)"/>
<path d="M1.12756 288.826L2.36789 287.6C7.06187 282.977 12.1854 278.809 17.6694 275.154L39.8943 259.557L41.4729 259.5L43.4574 265.127L44.0664 271.744L42.2622 276.684L43.683 279.655V284.831L44.1791 288.207L52.2189 293.485L51.2717 297.12L51.4408 302.263L50.8319 306.021L48.915 311.783L39.2854 323.318L33.1287 321.393L19.1804 314.641C12.3421 311.349 7.07648 305.504 4.52163 298.369L1.12756 288.826Z" fill="#A4A4A4"/>
<path d="M1.12756 288.826L2.36789 287.6C7.06187 282.977 12.1854 278.809 17.6694 275.154L39.8943 259.557L41.4729 259.5L43.4574 265.127L44.0664 271.744L42.2622 276.684L43.683 279.655V284.831L44.1791 288.207L52.2189 293.485L51.2717 297.12L51.4408 302.263L50.8319 306.021L48.915 311.783L39.2854 323.318L33.1287 321.393L19.1804 314.641C12.3421 311.349 7.07648 305.504 4.52163 298.369L1.12756 288.826Z" stroke="#A4A4A4" stroke-miterlimit="10"/>
<path d="M0 288.826L1.24033 287.6C5.93431 282.977 11.0578 278.809 16.5418 275.154L39.7928 258.971L41.9014 265.172L42.5103 271.8L40.413 276.74L41.8337 279.711L42.251 284.831L42.5893 288.5L50.8094 293.688L49.8623 297.323L50.0201 302.465L49.4112 306.224L47.5168 311.716L37.3685 322.845L32.0011 321.393L18.0528 314.641C11.2145 311.349 5.94892 305.504 3.39407 298.369L0 288.826Z" fill="white"/>
<path style="mix-blend-mode:multiply" d="M0 288.826L1.24033 287.6C5.93431 282.977 11.0578 278.809 16.5418 275.154L39.7928 258.971L41.9014 265.172L42.5103 271.8L40.413 276.74L41.8337 279.711L42.251 284.831L42.5893 288.5L50.8094 293.688L49.8623 297.323L50.0201 302.465L49.4112 306.224L47.5168 311.716L37.3685 322.845L32.0011 321.393L18.0528 314.641C11.2145 311.349 5.94892 305.504 3.39407 298.369L0 288.826Z" fill="url(#paint17_linear_269_224)"/>
<path d="M73.5417 293.091L80.7019 302.015L78.5144 304.378L71.0836 298.02L73.5417 293.091Z" fill="url(#paint18_linear_269_224)"/>
<path style="mix-blend-mode:multiply" opacity="0.4" d="M149.124 283.909C178.923 283.909 203.08 279.556 203.08 274.186C203.08 268.816 178.923 264.463 149.124 264.463C119.326 264.463 95.1689 268.816 95.1689 274.186C95.1689 279.556 119.326 283.909 149.124 283.909Z" fill="url(#paint19_radial_269_224)"/>
<path d="M75.1655 329.732C75.1655 329.732 85.1785 331.42 85.5957 331.352C86.0129 331.285 92.3613 325.366 92.3613 325.366V323.858L87.1518 317.353L74.8497 324.184V325.692L75.1655 329.732Z" fill="#ABABAB"/>
<path d="M75.1655 328.224C75.1655 328.224 85.1785 329.912 85.5957 329.845C86.0129 329.777 92.3613 323.858 92.3613 323.858C92.3613 323.858 93.6354 319.874 87.1518 315.845C85.6754 316.009 84.2615 316.53 83.0332 317.364C81.8049 318.197 80.7993 319.318 80.1043 320.628L74.8497 324.184L75.1655 328.224Z" fill="url(#paint20_linear_269_224)"/>
<path d="M40.2889 331.465C40.2889 331.465 45.7014 335.899 45.9269 335.966C46.1524 336.034 52.0272 334.695 52.0272 334.695L52.5459 333.783L51.6438 328.156L41.9691 328.066L41.4504 328.967L40.2889 331.465Z" fill="#ABABAB"/>
<path d="M40.8076 330.565C40.8076 330.565 46.2201 334.999 46.502 335.066C46.7839 335.134 52.6023 333.794 52.6023 333.794C52.6023 333.794 54.7221 331.848 52.2189 327.223C51.2806 326.815 50.2568 326.643 49.2367 326.722C48.2166 326.8 47.2313 327.127 46.3666 327.673L42.0254 328.033L40.8076 330.565Z" fill="url(#paint21_linear_269_224)"/>
<path d="M84.5583 307.45C84.5583 307.45 98.9689 312.841 99.6229 312.852C100.277 312.863 111.429 305.931 111.429 305.931C111.429 305.931 114.462 300.305 105.971 292.427C101.461 296.344 94.0978 297.525 94.0978 297.525L84.5583 305.177V307.45Z" fill="#999999"/>
<path d="M84.5583 305.2C84.5583 305.2 98.9689 310.59 99.6229 310.601C100.277 310.613 111.429 303.681 111.429 303.681C111.429 303.681 114.462 298.054 105.971 290.177C101.461 294.093 94.0978 295.274 94.0978 295.274L84.5583 305.2Z" fill="url(#paint22_linear_269_224)"/>
<defs>
<linearGradient id="paint0_linear_269_224" x1="77.4074" y1="273.915" x2="85.6177" y2="282.419" gradientUnits="userSpaceOnUse">
<stop stop-color="white"/>
<stop offset="0.01" stop-color="white"/>
<stop offset="1" stop-color="#FAFAFA"/>
</linearGradient>
<radialGradient id="paint1_radial_269_224" cx="0" cy="0" r="1" gradientUnits="userSpaceOnUse" gradientTransform="translate(144.092 266.303) rotate(-22.0693) scale(138.035 36.6831)">
<stop stop-color="#B57474"/>
<stop offset="0.15" stop-color="#C99A9A"/>
<stop offset="0.32" stop-color="#DDBEBE"/>
<stop offset="0.49" stop-color="#ECDBDB"/>
<stop offset="0.66" stop-color="#F6EFEF"/>
<stop offset="0.83" stop-color="#FDFBFB"/>
<stop offset="1" stop-color="white"/>
</radialGradient>
<linearGradient id="paint2_linear_269_224" x1="274.829" y1="73.8327" x2="311.825" y2="73.8327" gradientUnits="userSpaceOnUse">
<stop stop-color="#C20007"/>
<stop offset="0.24" stop-color="#C20007"/>
<stop offset="0.34" stop-color="#B10007"/>
<stop offset="0.5" stop-color="#9B0007"/>
<stop offset="0.6" stop-color="#930007"/>
<stop offset="1" stop-color="#DB0000"/>
</linearGradient>
<linearGradient id="paint3_linear_269_224" x1="196.776" y1="142.601" x2="234.528" y2="176.47" gradientUnits="userSpaceOnUse">
<stop offset="0.27" stop-color="#820007"/>
<stop offset="1" stop-color="#C00000"/>
</linearGradient>
<linearGradient id="paint4_linear_269_224" x1="99.95" y1="220.699" x2="149.688" y2="220.699" gradientUnits="userSpaceOnUse">
<stop offset="0.27" stop-color="#820007"/>
<stop offset="1" stop-color="#C00000"/>
</linearGradient>
<linearGradient id="paint5_linear_269_224" x1="226.928" y1="131.618" x2="268.55" y2="49.7392" gradientUnits="userSpaceOnUse">
<stop stop-color="#B10000"/>
<stop offset="0.11" stop-color="#D00000"/>
<stop offset="0.22" stop-color="#EA0000"/>
<stop offset="0.32" stop-color="#FA0000"/>
<stop offset="0.4" stop-color="#FF0000"/>
<stop offset="0.69" stop-color="#F50000"/>
<stop offset="0.76" stop-color="#EB0000"/>
<stop offset="0.88" stop-color="#D20000"/>
<stop offset="1" stop-color="#B10000"/>
</linearGradient>
<linearGradient id="paint6_linear_269_224" x1="233.13" y1="74.7217" x2="257.878" y2="104.783" gradientUnits="userSpaceOnUse">
<stop stop-color="#FF0000"/>
<stop offset="0.49" stop-color="#FF2100"/>
<stop offset="0.55"/>
<stop offset="1"/>
</linearGradient>
<linearGradient id="paint7_linear_269_224" x1="233.13" y1="74.7217" x2="257.878" y2="104.783" gradientUnits="userSpaceOnUse">
<stop stop-color="#FF0000"/>
<stop offset="0.49" stop-color="#FF2100"/>
<stop offset="0.55"/>
<stop offset="1"/>
</linearGradient>
<linearGradient id="paint8_linear_269_224" x1="265.12" y1="59.3272" x2="292.423" y2="-16.9036" gradientUnits="userSpaceOnUse">
<stop stop-color="#FF000B"/>
<stop offset="0.09" stop-color="#EA0000"/>
<stop offset="0.42" stop-color="#FF000B"/>
<stop offset="0.51" stop-color="#FF0000"/>
<stop offset="0.67" stop-color="#EA0000"/>
<stop offset="0.87" stop-color="#FF0000"/>
<stop offset="1" stop-color="#FF0000"/>
</linearGradient>
<linearGradient id="paint9_linear_269_224" x1="288.326" y1="47.8826" x2="268.835" y2="11.1082" gradientUnits="userSpaceOnUse">
<stop stop-color="#FF0000"/>
<stop offset="0.49" stop-color="#FF2100"/>
<stop offset="0.55"/>
<stop offset="1"/>
</linearGradient>
<linearGradient id="paint10_linear_269_224" x1="286.589" y1="43.3251" x2="265.961" y2="7.17755" gradientUnits="userSpaceOnUse">
<stop stop-color="#FF0000"/>
<stop offset="0.49" stop-color="#FF2100"/>
<stop offset="0.55"/>
<stop offset="1"/>
</linearGradient>
<linearGradient id="paint11_linear_269_224" x1="137.239" y1="185.994" x2="199.943" y2="95.2645" gradientUnits="userSpaceOnUse">
<stop stop-color="#B10000"/>
<stop offset="0.14" stop-color="#D00000"/>
<stop offset="0.28" stop-color="#EA0000"/>
<stop offset="0.41" stop-color="#FA0000"/>
<stop offset="0.52" stop-color="#FF0000"/>
<stop offset="1" stop-color="#F50000"/>
</linearGradient>
<linearGradient id="paint12_linear_269_224" x1="157.051" y1="127.117" x2="182.927" y2="156.663" gradientUnits="userSpaceOnUse">
<stop stop-color="#FF0000"/>
<stop offset="0.49" stop-color="#FF2100"/>
<stop offset="0.55"/>
<stop offset="1"/>
</linearGradient>
<linearGradient id="paint13_linear_269_224" x1="26.9495" y1="249.597" x2="107.91" y2="212.112" gradientUnits="userSpaceOnUse">
<stop stop-color="#860000"/>
<stop offset="0.02" stop-color="#9C0000"/>
<stop offset="0.05" stop-color="#AC0000"/>
<stop offset="0.07" stop-color="#B10000"/>
<stop offset="0.16" stop-color="#D00000"/>
<stop offset="0.25" stop-color="#EA0000"/>
<stop offset="0.33" stop-color="#FA0000"/>
<stop offset="0.4" stop-color="#FF0000"/>
<stop offset="1" stop-color="#F50000"/>
</linearGradient>
<linearGradient id="paint14_linear_269_224" x1="44.5513" y1="205.845" x2="85.1867" y2="252.638" gradientUnits="userSpaceOnUse">
<stop stop-color="#FF0000"/>
<stop offset="0.51" stop-color="#FF2C00"/>
<stop offset="0.55"/>
<stop offset="1"/>
</linearGradient>
<linearGradient id="paint15_linear_269_224" x1="311.193" y1="15.2482" x2="43.1831" y2="324.527" gradientUnits="userSpaceOnUse">
<stop stop-color="#FF0000"/>
<stop offset="0.31" stop-color="#FF0000"/>
<stop offset="0.45" stop-color="#E70000"/>
<stop offset="0.76" stop-color="#FF0000"/>
<stop offset="0.8" stop-color="#F70000"/>
<stop offset="0.86" stop-color="#DF0000"/>
<stop offset="0.92" stop-color="#BF0000"/>
<stop offset="1" stop-color="#590000"/>
</linearGradient>
<linearGradient id="paint16_linear_269_224" x1="171.349" y1="158.232" x2="198.132" y2="184.821" gradientUnits="userSpaceOnUse">
<stop stop-color="#FF0000"/>
<stop offset="0.52" stop-color="#FFCC38"/>
<stop offset="0.55"/>
<stop offset="0.59" stop-color="#201000"/>
<stop offset="0.68" stop-color="#633200"/>
<stop offset="0.76" stop-color="#9B4E00"/>
<stop offset="0.84" stop-color="#C66400"/>
<stop offset="0.9" stop-color="#E57400"/>
<stop offset="0.96" stop-color="#F87E00"/>
<stop offset="1" stop-color="#FF8100"/>
</linearGradient>
<linearGradient id="paint17_linear_269_224" x1="0.563797" y1="332.827" x2="40.194" y2="276.969" gradientUnits="userSpaceOnUse">
<stop stop-color="#DFE6EB"/>
<stop offset="0.18" stop-color="#E7ECEF"/>
<stop offset="0.62" stop-color="#F5F6F7"/>
<stop offset="1" stop-color="#FAFAFA"/>
</linearGradient>
<linearGradient id="paint18_linear_269_224" x1="71.7037" y1="297.086" x2="80.6973" y2="300.519" gradientUnits="userSpaceOnUse">
<stop stop-color="#272A2B"/>
<stop offset="0.28" stop-color="#333638"/>
<stop offset="0.39" stop-color="#393D3F"/>
<stop offset="0.55" stop-color="#4B4F52"/>
<stop offset="0.74" stop-color="#686D71"/>
<stop offset="0.81" stop-color="#747A7F"/>
<stop offset="1" stop-color="#818181"/>
</linearGradient>
<radialGradient id="paint19_radial_269_224" cx="0" cy="0" r="1" gradientUnits="userSpaceOnUse" gradientTransform="translate(149.124 273.887) scale(53.9554 9.69244)">
<stop stop-color="#B57474"/>
<stop offset="0.15" stop-color="#C99A9A"/>
<stop offset="0.32" stop-color="#DDBEBE"/>
<stop offset="0.49" stop-color="#ECDBDB"/>
<stop offset="0.66" stop-color="#F6EFEF"/>
<stop offset="0.83" stop-color="#FDFBFB"/>
<stop offset="1" stop-color="white"/>
</radialGradient>
<linearGradient id="paint20_linear_269_224" x1="72.899" y1="314.776" x2="85.8666" y2="325.988" gradientUnits="userSpaceOnUse">
<stop stop-color="white"/>
<stop offset="0.01" stop-color="white"/>
<stop offset="1" stop-color="#FAFAFA"/>
</linearGradient>
<linearGradient id="paint21_linear_269_224" x1="44.6948" y1="325.023" x2="48.6079" y2="336.202" gradientUnits="userSpaceOnUse">
<stop stop-color="white"/>
<stop offset="0.01" stop-color="white"/>
<stop offset="1" stop-color="#FAFAFA"/>
</linearGradient>
<linearGradient id="paint22_linear_269_224" x1="95.1915" y1="296.321" x2="103.139" y2="310.581" gradientUnits="userSpaceOnUse">
<stop offset="0.02" stop-color="#C4C4C4"/>
<stop offset="0.12" stop-color="#CFCFCF"/>
<stop offset="0.35" stop-color="#E7E7E7"/>
<stop offset="0.57" stop-color="#F5F5F5"/>
<stop offset="0.76" stop-color="#FAFAFA"/>
<stop offset="1" stop-color="#FAFAFA"/>
</linearGradient>
</defs>
</svg>
